<?xml version="1.0" encoding="UTF-8" standalone="no"?>
<!-- Created with Inkscape (http://www.inkscape.org/) -->

<svg
   xmlns:dc="http://purl.org/dc/elements/1.1/"
   xmlns:cc="http://creativecommons.org/ns#"
   xmlns:rdf="http://www.w3.org/1999/02/22-rdf-syntax-ns#"
   xmlns:svg="http://www.w3.org/2000/svg"
   xmlns="http://www.w3.org/2000/svg"
   xmlns:sodipodi="http://sodipodi.sourceforge.net/DTD/sodipodi-0.dtd"
   xmlns:inkscape="http://www.inkscape.org/namespaces/inkscape"
   version="1.1"
   width="100%"
   height="100%"
   viewBox="0 0 262 72"
   id="Layer_1"
   xml:space="preserve"
   inkscape:version="0.91 r13725"
   sodipodi:docname="logo.svg"><sodipodi:namedview
     pagecolor="#ffffff"
     bordercolor="#666666"
     borderopacity="1"
     objecttolerance="10"
     gridtolerance="10"
     guidetolerance="10"
     inkscape:pageopacity="0"
     inkscape:pageshadow="2"
     inkscape:window-width="1209"
     inkscape:window-height="687"
     id="namedview3087"
     showgrid="false"
     width="287px"
     inkscape:zoom="1.4878705"
     inkscape:cx="94.452365"
     inkscape:cy="58.933687"
     inkscape:window-x="513"
     inkscape:window-y="153"
     inkscape:window-maximized="0"
     inkscape:current-layer="Layer_1" /><metadata
     id="metadata3537"><rdf:RDF><cc:Work
         rdf:about=""><dc:format>image/svg+xml</dc:format><dc:type
           rdf:resource="http://purl.org/dc/dcmitype/StillImage" /><dc:title></dc:title></cc:Work></rdf:RDF></metadata><defs
     id="defs3535" /><path
     inkscape:connector-curvature="0"
     style="fill:#a03123"
     d="m 204.06083,34.351402 c -0.99901,-0.874307 -2.27582,-1.457826 -3.60806,-1.457826 -0.99901,0 -2.33057,0.612663 -2.33057,1.836693 0,1.282318 1.47012,1.778407 2.41371,2.098987 l 1.38834,0.437153 c 2.91321,0.9041 5.16132,2.449358 5.16132,6.005524 0,2.186417 -0.4995,4.430475 -2.1643,5.917445 -1.63707,1.457829 -3.82976,2.069844 -5.93863,2.069844 -2.63676,0 -5.21809,-0.932596 -7.35536,-2.506997 l 2.33126,-4.605984 c 1.35994,1.253174 2.96998,2.273848 4.82944,2.273848 1.27614,0 2.63608,-0.670302 2.63608,-2.215561 0,-1.603545 -2.13658,-2.157273 -3.30186,-2.506996 -3.41407,-1.020674 -5.66218,-1.95327 -5.66218,-6.208882 0,-4.460913 3.02474,-7.375921 7.21612,-7.375921 2.10887,0 4.68953,0.700095 6.54966,1.807551 l -2.16497,4.431122 z"
     id="path3488" /><path
     inkscape:connector-curvature="0"
     style="fill:#a03123"
     d="m 227.81536,28.695602 0,12.36077 c 0,2.827577 -0.11085,5.626009 -2.19269,7.75414 -1.74792,1.806903 -4.49554,2.44871 -6.93764,2.44871 -2.44277,0 -5.19038,-0.641807 -6.93899,-2.44871 -2.08116,-2.128131 -2.19201,-4.926563 -2.19201,-7.75414 l 0,-12.36077 5.43981,0 0,11.573246 c 0,2.85672 0.19398,5.97638 3.69119,5.97638 3.49654,0 3.69053,-3.11966 3.69053,-5.97638 l 0,-11.573246 5.4398,0 z"
     id="path3490" /><path
     inkscape:connector-curvature="0"
     style="fill:#a03123"
     d="m 231.25445,50.676349 0,-21.9801 7.77105,0 c 3.71891,0 6.2171,1.516114 6.2171,5.713441 0,1.982412 -0.61102,3.585958 -2.3042,4.489409 l 0,0.05829 c 2.9977,0.408011 4.27384,2.536789 4.27384,5.596866 0,4.605984 -3.74596,6.122097 -7.57639,6.122097 l -8.3814,0 z m 5.4398,-13.351005 0.61035,0 c 1.44309,0 2.94229,-0.26294 2.94229,-2.128777 0,-2.010909 -1.69318,-2.127482 -3.16399,-2.127482 l -0.38865,0 0,4.256259 z m 0,8.978171 0.69349,0 c 1.61004,0 4.32927,0.08743 4.32927,-2.332136 0,-2.652714 -2.69151,-2.389774 -4.46783,-2.389774 l -0.55493,0 0,4.72191 z"
     id="path3492" /><path
     inkscape:connector-curvature="0"
     style="fill:#a03123"
     d="m 54.950861,39.685976 c 0,11.439833 -9.678495,20.713325 -21.61795,20.713325 -11.93945,0 -21.618623,-9.273492 -21.618623,-20.713325 0,-11.439833 9.679173,-20.713326 21.618623,-20.713326 11.939455,0 21.61795,9.273493 21.61795,20.713326"
     id="path3494" /><path
     inkscape:connector-curvature="0"
     style="fill:#ffffff"
     d="m 25.605119,30.973984 c 0.258877,0.68455 1.579625,1.325709 2.666504,1.882675 1.476209,0.756439 3.344451,1.676081 5.038983,1.621679 2.164971,1.157972 4.761856,2.223334 7.51623,2.930552 2.688811,0.689731 6.185348,1.234392 8.165112,0.732474 3.319448,-0.841925 0.454219,-3.813277 -3.385688,-5.308019 -0.102751,-0.0395 -0.194662,-0.0246 -0.218317,0.0091 -0.04598,-0.02332 -0.09262,-0.04662 -0.14397,-0.06865 -0.539386,-0.230558 -1.142301,-0.409953 -1.678988,-0.644397 -0.156134,-0.06801 -0.316332,-0.01166 -0.167625,0.06347 1.039561,0.528472 2.278522,0.831564 2.429928,1.50899 0.09325,0.417079 0.05132,0.819259 -0.04663,1.198774 -0.09934,0.387286 -0.211562,0.809544 -0.637389,1.101628 -0.54614,0.374333 -1.364002,-0.137299 -1.714808,-0.569918 -1.142984,-1.409904 0.875319,-2.340556 -0.496802,-3.789964 -1.202459,-1.271308 -3.520866,-1.988241 -6.085983,-2.601552 -2.068315,-0.784287 -3.474228,-1.851589 -5.762217,-2.521245 -0.679976,-0.199471 -1.130139,-0.264235 -1.637754,-0.281721 -0.04529,-0.0098 -0.08922,-0.01166 -0.118287,-0.0032 -0.180469,-0.0038 -0.37108,-0.0026 -0.583319,0 -1.057138,0.0123 -2.883474,-0.498679 -3.479634,-1.056941 -0.09599,-0.09002 -0.295379,-0.130822 -0.423803,-0.121755 -0.164248,-0.03627 -0.302136,0.0085 -0.181146,0.09974 0.01824,0.01425 0.03582,0.02784 0.05407,0.0421 -6.380008,-0.530414 -4.841615,4.034769 0.891538,5.776261 m 3.832467,-4.521144 c 0.719855,0.91511 1.232201,1.914411 1.19773,2.733022 -0.0088,0.203357 -0.0223,0.917052 -0.768521,0.797887 -0.485311,-0.07771 -0.906409,-0.526527 -1.082148,-0.698798 -0.821919,-0.803716 -1.377525,-1.611317 -2.01289,-2.412442 -0.205479,-0.259703 -0.435292,-0.636626 -0.759058,-0.994768 0.285914,0.108154 0.593458,0.204004 0.913844,0.286254 0.517755,0.132765 1.044297,0.253227 1.559347,0.304388 0.350128,0.03497 0.640097,-0.0032 0.951696,-0.01555 m 8.794393,3.155927 c -0.06962,0.64893 0.478552,1.437751 0.552904,2.110644 0.04325,0.389229 0.0872,0.896975 -0.474497,1.117172 -0.384597,0.150898 -1.521494,0.194937 -2.064258,-0.19429 -0.511671,-0.366562 -0.624551,-0.78105 -0.724587,-1.129477 -0.125045,-0.436507 -0.186554,-0.863298 -0.261581,-1.292033 -0.111527,-0.634683 -0.09125,-1.401483 -0.923982,-2.100282 0.662401,0.339361 1.324802,0.663826 2.089268,0.944252 -0.004,0.0531 0.0703,0.121756 0.235897,0.159966 0.504236,0.11787 1.038212,0.243511 1.570836,0.384048 m -13.216261,-4.905838 0.004,0 c 0.869233,0.647634 1.366035,1.877495 1.947326,2.617742 0.378515,0.481841 0.750946,1.270014 1.230851,1.752502 0.269015,0.269416 0.580614,0.635978 1.081471,0.876898 1.421459,0.681961 1.824308,-0.321875 1.813493,-0.674189 -0.02635,-0.850993 -0.438672,-1.882028 -1.370766,-2.83211 0.07841,0.0032 0.158167,0.0123 0.242656,0.02266 0.273747,0.03432 0.554929,0.09391 0.836788,0.166441 0.395413,0.42744 0.591431,0.838689 0.871261,1.261594 0.04529,0.06865 0.289294,0.0842 0.252795,0.01684 -0.212916,-0.397 -0.384599,-0.797239 -0.853012,-1.202011 0.412311,0.121108 0.825299,0.271359 1.220036,0.434563 0.004,0.0045 0.0067,0.0085 0.01352,0.01296 0.610356,0.428735 0.880724,0.821848 0.854363,1.219497 -0.0047,0.07319 0.254146,0.135356 0.277803,0.06477 0.100042,-0.294027 -0.0392,-0.657998 -0.469088,-1.000598 0.386626,0.178748 0.744863,0.35879 1.053083,0.518756 0.02434,0.0123 0.048,0.02461 0.07232,0.03692 -0.175739,-0.03108 -0.34607,0.02979 -0.211563,0.1373 0.548847,0.437801 0.633337,0.92547 0.731346,1.33348 0.118961,0.498033 0.176415,0.98635 0.284562,1.483086 0.105441,0.483137 0.140592,1.619088 1.610718,2.042643 1.906093,0.549842 2.716522,-0.166443 2.746937,-0.78105 0.02299,-0.476659 -0.122341,-0.98311 -0.30619,-1.492799 -0.118963,-0.328351 -0.326471,-0.691027 -0.353507,-1.011607 0.4407,0.122404 0.873965,0.256464 1.284923,0.403477 -0.0014,0.0123 0.0047,0.02655 0.02771,0.04339 0.229814,0.172919 0.430561,0.358141 0.494098,0.531061 0.048,0.13147 0.04055,0.254521 0.07637,0.384696 0.01352,0.04922 0.19061,0.09197 0.223729,0.05245 0.194665,-0.231852 0.0026,-0.53948 -0.356885,-0.833506 0.404876,0.1645 0.779335,0.344542 1.09769,0.545957 0.09325,0.05829 0.180471,0.116575 0.26294,0.174213 -0.03852,0.174862 -0.04194,0.356201 -0.04802,0.537539 -0.0064,0.174214 -0.06082,0.341951 0.0032,0.527822 0.01622,0.04728 0.177101,0.08679 0.212247,0.04987 0.231164,-0.241568 0.123013,-0.59712 0.100724,-0.913814 0.917892,0.733124 1.035506,1.395007 0.857735,2.053005 -0.166269,0.615901 -0.551551,1.320528 0.06957,2.065957 0.262256,0.314751 0.842199,0.879489 1.669524,1.027797 1.576248,0.281722 1.674924,-1.227916 1.729,-1.633336 0.04534,-0.338066 0.183853,-0.774573 -0.108141,-1.166392 -0.11897,-0.160613 -0.261584,-0.343247 -0.480584,-0.511632 0.725939,0.340009 1.402531,0.699446 1.995992,1.072484 -0.0032,0.0032 -0.0054,0.0071 -0.0042,0.0123 0.03788,0.3834 0.125041,0.774571 0.06754,1.140487 -0.01077,0.07059 0.252119,0.132765 0.27172,0.06346 0.09464,-0.339361 0.0042,-0.704626 -0.125041,-1.081551 0.764468,0.502565 1.370767,1.029093 1.728326,1.569869 0.609009,0.922233 0.464356,1.858065 -1.122029,2.157273 -0.848281,0.159968 -1.902033,0.168387 -3.033526,0.07189 0.94764,-0.08355 1.658705,-0.374981 2.13658,-0.702685 0.01686,-0.01165 -0.04194,-0.03627 -0.06082,-0.02591 -0.729994,0.411895 -1.788484,0.689083 -3.246444,0.595176 -0.484629,-0.06735 -0.976033,-0.151546 -1.464043,-0.247396 0.842198,0.03432 1.555964,-0.07059 2.14807,-0.269417 0.07565,-0.02591 -0.0717,-0.0952 -0.149378,-0.07448 -0.8841,0.238979 -1.891898,0.259702 -3.16195,0.09261 -0.568449,-0.134709 -1.123379,-0.283664 -1.648568,-0.441687 -0.239277,-0.07188 -0.475171,-0.146365 -0.709716,-0.222138 1.308581,0.246748 2.529963,0.181337 3.405282,-0.04145 0.08514,-0.02136 -0.06626,-0.108803 -0.156817,-0.09196 -1.003059,0.185222 -2.11292,0.147661 -3.429611,-0.01036 -0.08516,-0.0098 -0.118287,0.01943 -0.100714,0.05181 -0.533977,-0.177453 -1.054435,-0.36462 -1.562051,-0.559558 0.840169,0.05181 1.591115,-0.0285 2.15686,-0.198824 0.0588,-0.01749 -0.05002,-0.08096 -0.115582,-0.06735 -0.704984,0.142479 -1.496486,0.153489 -2.378562,0.13406 -1.213953,-0.479898 -2.351526,-1.005778 -3.407988,-1.562744 -0.004,-0.0026 -0.0074,-0.0052 -0.01217,-0.0078 -0.567772,-0.299209 -1.113239,-0.609426 -1.634374,-0.924824 -0.241979,-0.146366 -0.65767,-0.09261 -0.415691,0.05765 0.460978,0.286253 0.951019,0.563441 1.466071,0.842573 -1.584357,-0.06801 -3.359323,-0.988293 -4.588821,-1.659242 -1.453904,-0.794002 -2.531996,-1.437104 -2.406275,-2.225276 0.0169,-0.107508 -0.387978,-0.293379 -0.473821,-0.196233 -0.100713,0.114631 -0.135858,-0.0078 -0.11896,0.13406 -5.276232,-1.748616 -6.511814,-5.727688 -0.545468,-5.727688"
     id="path3496" /><path
     inkscape:connector-curvature="0"
     style="fill:#ffffff"
     d="m 37.015999,47.828049 c 0.112879,0.05893 0.169656,0.137299 0.170332,0.235091 6.76e-4,0.09715 -0.03514,0.205301 -0.106795,0.323172 -0.07165,0.117869 -0.166277,0.240271 -0.285238,0.365265 -0.118287,0.125641 -0.241304,0.246102 -0.367701,0.362028 -0.12775,0.11528 -0.247387,0.219549 -0.360265,0.312161 -0.112203,0.09326 -0.197369,0.163851 -0.253471,0.212424 0.122342,-0.01361 0.239952,6.48e-4 0.352155,0.04275 0.112878,0.0421 0.201424,0.101679 0.266312,0.180042 0.07368,0.09585 0.112879,0.20271 0.118962,0.32058 0.0055,0.117222 -0.01149,0.239626 -0.05002,0.365266 -0.0392,0.12629 -0.0953,0.25193 -0.168981,0.376276 -0.07435,0.124995 -0.154785,0.243512 -0.241978,0.354905 -0.0872,0.112688 -0.175065,0.215014 -0.26361,0.308274 -0.08786,0.09261 -0.1656,0.166443 -0.233191,0.221491 -0.263609,0.226025 -0.524515,0.41643 -0.781363,0.57251 -0.257527,0.156081 -0.49883,0.274598 -0.724587,0.354904 -0.225757,0.08031 -0.429885,0.123699 -0.613736,0.129527 -0.183849,0.0065 -0.333904,-0.02979 -0.449486,-0.107508 -0.115583,-0.07836 -0.191286,-0.19688 -0.228461,-0.356198 -0.0365,-0.159318 -0.02163,-0.363324 0.04461,-0.613311 0.0087,-0.02914 0.03988,-0.0557 0.0926,-0.08031 0.05272,-0.02396 0.108147,-0.04145 0.166276,-0.0531 0.05813,-0.01165 0.108824,-0.01361 0.152082,-0.0038 0.04259,0.0098 0.0588,0.03302 0.04866,0.07059 -0.01284,0.04599 -0.03514,0.111394 -0.06624,0.196882 -0.03109,0.08549 -0.05543,0.17551 -0.07367,0.272006 -0.01825,0.09585 -0.02299,0.187168 -0.01488,0.275246 0.0081,0.08744 0.04866,0.154785 0.121665,0.199471 0.06895,0.04662 0.168981,0.05247 0.300109,0.01749 0.131804,-0.03497 0.281182,-0.100383 0.447458,-0.196233 0.166953,-0.09585 0.343368,-0.213072 0.529922,-0.352315 0.185877,-0.139888 0.369052,-0.292082 0.548848,-0.456582 0.179117,-0.165147 0.346745,-0.333532 0.502207,-0.504509 0.156138,-0.170975 0.28659,-0.33677 0.392034,-0.496089 0.106124,-0.159317 0.179118,-0.30633 0.220351,-0.441039 0.04055,-0.134061 0.03448,-0.241568 -0.01893,-0.32317 -0.04731,-0.07448 -0.118286,-0.111393 -0.211562,-0.110746 -0.09327,6.48e-4 -0.198045,0.02396 -0.314303,0.07059 -0.116259,0.04728 -0.236573,0.108803 -0.359591,0.183929 -0.123016,0.07577 -0.240626,0.151546 -0.354182,0.226673 -0.112877,0.07577 -0.212238,0.145069 -0.297403,0.20789 -0.08584,0.06282 -0.146676,0.104269 -0.181823,0.124346 -0.05002,0.124994 -0.0899,0.260997 -0.121665,0.409306 -0.0311,0.147013 -0.113555,0.622377 -0.145324,0.754495 -0.0026,0.02009 -0.01554,0.03108 -0.03718,0.03239 -0.02231,0.0013 -0.04664,-0.002 -0.07301,-0.0098 -0.02636,-0.0071 -0.05069,-0.01684 -0.07435,-0.02914 -0.02365,-0.0123 -0.03784,-0.02072 -0.04394,-0.02784 -0.01622,-0.01555 -0.0284,-0.0408 -0.03785,-0.07577 -0.0087,-0.03497 -0.01554,-0.07319 -0.02028,-0.115278 -0.0047,-0.0421 0.04529,-0.419668 0.04596,-0.465002 0,-0.04469 0.0021,-0.08549 0.0055,-0.121109 -0.02704,0.02202 -0.06354,0.0421 -0.109499,0.06087 -0.04664,0.01878 -0.0899,0.02784 -0.130453,0.02784 -0.04123,-6.48e-4 -0.07096,-0.0149 -0.09057,-0.04339 -0.0196,-0.0285 -0.0169,-0.08096 0.0088,-0.157374 0.0067,-0.02072 0.02973,-0.05051 0.06895,-0.08873 0.03853,-0.03821 0.08178,-0.07771 0.128424,-0.11787 0.04664,-0.04014 0.08922,-0.07707 0.127748,-0.10945 0.03853,-0.03239 0.06219,-0.05375 0.07232,-0.06411 0.02771,-0.08031 0.05137,-0.159967 0.06962,-0.23833 0.01893,-0.07836 0.0365,-0.152195 0.05407,-0.220197 0.0169,-0.06865 0.03244,-0.126936 0.04664,-0.174861 0.01419,-0.04857 0.02839,-0.08225 0.04394,-0.101031 0.01284,-0.0149 0.03514,-0.02591 0.06826,-0.03367 0.03244,-0.0078 0.06895,-0.0123 0.108822,-0.01425 0.04055,-0.0013 0.07773,6.48e-4 0.111528,0.0065 0.03448,0.0058 0.0588,0.01425 0.07435,0.02655 0.03718,0.03368 0.04934,0.08289 0.03718,0.145719 -0.01217,0.06347 -0.02163,0.12305 -0.02704,0.179395 0.0507,-0.02396 0.149378,-0.08807 0.295377,-0.192349 0.145998,-0.104916 0.310923,-0.229263 0.493422,-0.373685 0.183174,-0.144423 0.369728,-0.299208 0.558986,-0.465002 0.189933,-0.165147 0.356886,-0.322523 0.502207,-0.472127 0.144647,-0.148956 0.251443,-0.280425 0.320387,-0.393761 0.06826,-0.113984 0.07367,-0.18911 0.01488,-0.226025 -0.06691,-0.03887 -0.17236,-0.03951 -0.317683,-0.0013 -0.144646,0.03821 -0.31633,0.104269 -0.513699,0.199472 -0.197368,0.0952 -0.411635,0.213072 -0.642124,0.352961 -0.231164,0.13989 -0.462329,0.293379 -0.694845,0.459173 -0.232517,0.165148 -0.457598,0.337419 -0.676597,0.516166 -0.218997,0.178099 -0.41569,0.352962 -0.589401,0.523937 -0.173711,0.171624 -0.319035,0.333533 -0.434617,0.485727 -0.115582,0.152195 -0.183174,0.28496 -0.202775,0.398944 -0.0081,0.03303 -0.03582,0.03627 -0.08314,0.01036 -0.04731,-0.02591 -0.0899,-0.07319 -0.127747,-0.14248 -0.03853,-0.0693 -0.05949,-0.155433 -0.06421,-0.259703 -0.004,-0.104269 0.03718,-0.217606 0.12437,-0.339361 0.115583,-0.167736 0.280506,-0.353608 0.494772,-0.558261 0.214268,-0.204653 0.455571,-0.407363 0.723911,-0.608777 0.267665,-0.201416 0.550875,-0.389877 0.850308,-0.565386 0.298757,-0.176158 0.593458,-0.321227 0.883427,-0.436506 0.28997,-0.114632 0.562366,-0.188463 0.816512,-0.220844 0.254821,-0.03239 0.472468,-0.0038 0.65429,0.08613"
     id="path3498" /><path
     inkscape:connector-curvature="0"
     style="fill:#ffffff"
     d="m 38.969408,51.658812 c 0.04866,-0.0246 0.111526,-0.09714 0.187906,-0.218252 0.07706,-0.119813 0.161545,-0.272655 0.254146,-0.456584 0.0926,-0.184575 0.191961,-0.393115 0.297403,-0.627558 0.105441,-0.23315 0.210213,-0.475364 0.313628,-0.725351 0.103413,-0.24934 0.206156,-0.499976 0.30822,-0.751258 0.102741,-0.25193 0.196016,-0.488965 0.280506,-0.712399 0.08517,-0.222787 0.160193,-0.421612 0.226433,-0.59712 0.06691,-0.175508 0.116934,-0.312808 0.152082,-0.411249 0.01149,-0.03627 0.03785,-0.0544 0.08043,-0.0544 0.04259,0 0.08652,0.01296 0.13248,0.03887 0.04596,0.02656 0.08517,0.06282 0.118286,0.110745 0.03312,0.04728 0.04934,0.09909 0.04866,0.154785 -0.01284,0.251283 -0.03042,0.535596 -0.05136,0.852938 -0.02095,0.317341 -0.04394,0.639862 -0.06826,0.967566 -0.02501,0.327704 -0.05137,0.645692 -0.07976,0.953967 -0.02839,0.308275 -0.05475,0.573805 -0.07841,0.798534 -0.02299,0.224082 -0.04529,0.393116 -0.06556,0.505803 -0.0196,0.113337 -0.03312,0.139243 -0.04055,0.07901 0.0026,0.02009 -0.0169,0.02526 -0.05745,0.01618 -0.04123,-0.0091 -0.0872,-0.03432 -0.138564,-0.07383 -0.05136,-0.0408 -0.09936,-0.09909 -0.14397,-0.174862 -0.04394,-0.07641 -0.06895,-0.174861 -0.07367,-0.297264 -0.0067,-0.141831 0.0055,-0.311512 0.03785,-0.507746 0.03245,-0.196233 0.07097,-0.404771 0.116934,-0.625616 0.04596,-0.220196 0.09192,-0.446221 0.137888,-0.678074 0.04664,-0.231854 0.08178,-0.45464 0.106796,-0.66836 -0.08652,0.224082 -0.185878,0.459821 -0.299433,0.708514 -0.112879,0.248043 -0.235221,0.501917 -0.367025,0.761618 -0.131128,0.260351 -0.270367,0.520052 -0.417718,0.779106 -0.147351,0.259054 -0.30146,0.510984 -0.461653,0.755143 -0.09192,0.141185 -0.181823,0.227319 -0.269017,0.259054 -0.08786,0.03173 -0.171007,0.03173 -0.249414,-0.002 -0.07908,-0.03239 -0.150055,-0.08679 -0.21359,-0.161262 -0.06421,-0.07448 -0.116259,-0.148956 -0.156814,-0.222786 -0.135184,-0.244159 -0.256174,-0.488965 -0.363644,-0.735067 -0.106796,-0.245454 -0.218999,-0.499327 -0.337284,-0.76097 -0.0026,0.09974 -0.01217,0.220842 -0.0284,0.36138 -0.01554,0.141184 -0.03244,0.292082 -0.0507,0.453992 -0.01825,0.161262 -0.03514,0.328352 -0.05069,0.501917 -0.01622,0.17292 -0.0311,0.341304 -0.04325,0.504508 -0.01284,0.162557 -0.02163,0.317342 -0.02569,0.46306 -0.004,0.145717 -6.76e-4,0.269416 0.01082,0.370446 0.0021,0.02914 -0.01758,0.04534 -0.06016,0.04987 -0.04191,0.0045 -0.09057,-0.0123 -0.14397,-0.04857 -0.05407,-0.03692 -0.106795,-0.09844 -0.158841,-0.183282 -0.05136,-0.08549 -0.08178,-0.2053 -0.09125,-0.358789 -0.0081,-0.128881 -0.01013,-0.279132 -0.0047,-0.451402 0.0055,-0.172272 0.01488,-0.349077 0.02771,-0.53171 0.01352,-0.182633 0.02906,-0.364619 0.04731,-0.54531 0.01893,-0.18069 0.03853,-0.344541 0.06083,-0.490906 0.02163,-0.145717 0.04461,-0.268121 0.06894,-0.365915 0.02434,-0.09779 0.04664,-0.156727 0.0676,-0.175508 0.01352,-0.01555 0.03514,-0.02526 0.06556,-0.0272 0.02973,-0.0026 0.06015,0.0038 0.09057,0.01813 l -0.380584,-0.674829 c -0.02029,-0.03692 -0.01082,-0.07059 0.0284,-0.101031 0.03853,-0.03108 0.09395,-0.04599 0.165601,-0.04599 0.07165,0 0.148026,0.02137 0.229812,0.06347 0.08112,0.04209 0.155462,0.114631 0.221702,0.2189 0.04394,0.07124 0.0953,0.1917 0.152082,0.359437 0.05745,0.168386 0.118286,0.357495 0.183174,0.566682 0.06421,0.209186 0.129777,0.424849 0.196692,0.64634 0.06624,0.221492 0.133157,0.420963 0.200073,0.599063 0.0676,0.178099 0.131129,0.319284 0.191286,0.424201 0.06015,0.10427 0.114905,0.143775 0.163572,0.119164"
     id="path3500" /><path
     inkscape:connector-curvature="0"
     style="fill:#ffffff"
     d="m 42.449048,48.382425 c 0.09058,-0.104269 0.212236,-0.233149 0.364314,-0.387286 0.15209,-0.154137 0.322414,-0.310218 0.512349,-0.467592 0.189264,-0.157377 0.390008,-0.307628 0.602926,-0.45205 0.212236,-0.145072 0.423117,-0.260351 0.631308,-0.347133 0.208181,-0.08679 0.410281,-0.134061 0.605626,-0.140538 0.195334,-0.0071 0.368369,0.04662 0.519103,0.161262 0.06626,0.05117 0.102751,0.111393 0.10815,0.18069 0.0064,0.07059 -0.0086,0.144423 -0.04396,0.223434 -0.0351,0.07901 -0.08514,0.157376 -0.148707,0.235092 -0.06348,0.07837 -0.131805,0.152194 -0.203443,0.221492 -0.07235,0.06929 -0.142625,0.128232 -0.210892,0.177452 -0.06829,0.04923 -0.122341,0.08225 -0.162225,0.09844 -0.08856,0.04144 -0.171007,0.06477 -0.246711,0.06865 -0.07565,0.0052 -0.13586,-6.48e-4 -0.182498,-0.01684 -0.04599,-0.01618 -0.0716,-0.03887 -0.07703,-0.06995 -0.0054,-0.03108 0.01761,-0.06087 0.06893,-0.09068 0.04055,-0.0246 0.09528,-0.06347 0.164925,-0.115279 0.06893,-0.05117 0.14127,-0.10945 0.217646,-0.174213 0.07639,-0.06477 0.150062,-0.133413 0.220355,-0.206596 0.07032,-0.07253 0.129096,-0.140537 0.175734,-0.203358 0.04727,-0.06282 0.07437,-0.118517 0.08248,-0.167738 0.0086,-0.04857 -0.01217,-0.08355 -0.06018,-0.104269 -0.109505,-0.04145 -0.245366,-0.03173 -0.406908,0.02979 -0.162215,0.06153 -0.337288,0.158671 -0.52654,0.293378 -0.189253,0.134708 -0.384598,0.297265 -0.58737,0.487023 -0.202782,0.189756 -0.401499,0.393114 -0.596161,0.610072 -0.194673,0.217605 -0.377171,0.439745 -0.548178,0.66577 -0.171007,0.226025 -0.319031,0.443629 -0.444072,0.652816 -0.125052,0.209186 -0.219001,0.400886 -0.281868,0.575748 -0.06284,0.175509 -0.08312,0.315399 -0.06082,0.422258 0.01558,0.07189 0.05068,0.102327 0.106166,0.09197 0.05537,-0.01101 0.116933,-0.03756 0.183843,-0.07966 0.0669,-0.0421 0.132489,-0.09131 0.195345,-0.147013 0.06348,-0.05505 0.110178,-0.09261 0.139243,-0.113337 0.125713,-0.09391 0.255492,-0.194291 0.390007,-0.301798 0.134506,-0.107507 0.271038,-0.212425 0.410953,-0.313455 0.139243,-0.101679 0.27983,-0.197529 0.421772,-0.288198 0.142625,-0.09002 0.289294,-0.163852 0.439356,-0.222786 0.08856,-0.03304 0.195334,-0.04728 0.319703,-0.04339 0.124369,0.0038 0.243338,0.02784 0.355533,0.07189 0.112878,0.04404 0.206164,0.109451 0.280512,0.196233 0.07373,0.08679 0.104032,0.196881 0.09123,0.330294 -0.01686,0.143128 -0.07096,0.301798 -0.162225,0.47666 -0.09123,0.174214 -0.208181,0.351019 -0.350796,0.530413 -0.142625,0.179395 -0.303495,0.352315 -0.481939,0.520052 -0.178434,0.16709 -0.362287,0.316046 -0.550868,0.44622 -0.18858,0.130175 -0.375133,0.234445 -0.558987,0.313456 -0.183854,0.07901 -0.354188,0.117869 -0.510322,0.116575 -0.112877,-0.0026 -0.222372,-0.03239 -0.327823,-0.08937 -0.106165,-0.05764 -0.19128,-0.129527 -0.256175,-0.215662 -0.06552,-0.08678 -0.09998,-0.181338 -0.104031,-0.284959 -0.0032,-0.103623 0.03713,-0.204654 0.122342,-0.301798 0.02977,-0.02914 0.06967,-0.04533 0.119631,-0.04987 0.0494,-0.0045 0.09603,0 0.13857,0.01361 0.04258,0.01296 0.07501,0.03239 0.09731,0.05829 0.0223,0.02591 0.02368,0.05375 0.0022,0.08289 -0.094,0.13406 -0.148024,0.238977 -0.160871,0.314751 -0.01281,0.07577 0.0022,0.127584 0.0446,0.154784 0.04258,0.02784 0.106166,0.03562 0.19128,0.02266 0.0845,-0.0123 0.177771,-0.04014 0.279157,-0.08225 0.101365,-0.04209 0.205482,-0.09391 0.311605,-0.154785 0.106166,-0.06023 0.202771,-0.127584 0.289966,-0.201414 0.267666,-0.218253 0.518431,-0.460469 0.75365,-0.725999 0.235901,-0.264883 0.434618,-0.574453 0.598188,-0.927414 0.08045,-0.174214 0.10542,-0.286902 0.07565,-0.338066 -0.02977,-0.05181 -0.09603,-0.06023 -0.199389,-0.02591 -0.102752,0.03497 -0.233202,0.10168 -0.39069,0.200121 -0.157489,0.09909 -0.324441,0.208537 -0.500175,0.329645 -0.176417,0.120462 -0.352161,0.242864 -0.52925,0.365915 -0.177089,0.12305 -0.333222,0.225377 -0.469082,0.306331 -0.0636,0.03951 -0.137216,0.07513 -0.219684,0.107507 -0.08248,0.03239 -0.164914,0.05829 -0.248737,0.07901 -0.08312,0.02009 -0.16627,0.03173 -0.248738,0.03562 -0.08248,0.0032 -0.156805,-0.0058 -0.223055,-0.0285 -0.196689,-0.06217 -0.311594,-0.177451 -0.344713,-0.345838 -0.03312,-0.167736 -0.01077,-0.363323 0.06754,-0.585461 0.07779,-0.22214 0.200072,-0.461116 0.366342,-0.716933 0.166952,-0.255168 0.353506,-0.501918 0.55967,-0.740894"
     id="path3502" /><path
     inkscape:connector-curvature="0"
     style="fill:#ffffff"
     d="m 27.250984,50.026771 c 0.0067,0.05181 0.03514,0.07253 0.05813,0.09585 0.03042,0.03108 0.06489,0.05893 0.09192,0.09197 0.08652,0.102974 0.174387,0.2053 0.25347,0.312808 0.07908,0.108156 0.158166,0.218254 0.219673,0.335475 0.06624,0.125641 0.120315,0.258407 0.164926,0.392467 0.06624,0.19753 0.152081,0.384047 0.256173,0.566034 0.111526,0.193643 0.243332,0.365914 0.440699,0.486375 0.0088,0.0052 0.01352,0.01618 0.02636,0.03239 -0.02299,0.0045 -0.03784,0.01036 -0.05137,0.0085 -0.02501,-0.0032 -0.04934,-0.01361 -0.07435,-0.01813 -0.22846,-0.03821 -0.451514,-0.09974 -0.673215,-0.163852 -0.01758,-0.0052 -0.03312,-0.01813 -0.0561,-0.03173 0.02365,-0.0149 0.0365,-0.0272 0.05137,-0.03108 0.05745,-0.01555 0.07841,-0.05634 0.09327,-0.106861 0.02703,-0.09326 0.0088,-0.183928 -0.01419,-0.272654 -0.05205,-0.196234 -0.15411,-0.368504 -0.281859,-0.528471 -0.0953,-0.119812 -0.200748,-0.22991 -0.323765,-0.325112 -0.104096,-0.08031 -0.214267,-0.152194 -0.331877,-0.21372 -0.03514,-0.01878 -0.06691,-0.0408 -0.07773,-0.08161 -0.02366,-0.08419 -0.04866,-0.167737 -0.07097,-0.252577 -0.05137,-0.191699 -0.128425,-0.374334 -0.212915,-0.553728 -0.114906,-0.24675 -0.273072,-0.464356 -0.482607,-0.646341 -0.0169,-0.0149 -0.03785,-0.02526 -0.06556,-0.04275 0.01082,0.0557 0.0087,0.05763 0.04934,0.09779 0.107472,0.104917 0.187906,0.227321 0.261582,0.355552 0.08112,0.141184 0.136535,0.290788 0.177766,0.444926 0.0365,0.138595 0.06083,0.280425 0.08043,0.422258 0.03312,0.239624 0.05678,0.480546 0.120314,0.715637 0.02028,0.07641 0.04259,0.150899 0.08179,0.220844 0.0095,0.01813 0.01825,0.03627 0.02704,0.0544 0.08516,0.177452 0.162221,0.359438 0.327146,0.487024 0.01149,0.0091 0.0169,0.02591 0.02501,0.03951 -0.004,0.0045 -0.0074,0.0091 -0.01149,0.01425 -0.03448,-0.011 -0.0703,-0.01943 -0.10274,-0.03368 -0.03448,-0.01424 -0.06489,-0.03627 -0.09869,-0.05181 -0.160193,-0.07318 -0.322414,-0.143774 -0.481931,-0.218901 -0.127748,-0.06087 -0.252793,-0.126936 -0.37919,-0.191699 -0.01013,-0.0052 -0.0169,-0.01618 -0.02637,-0.02591 0.0081,-0.0032 0.01013,-0.0052 0.01217,-0.0052 0.02299,0.0013 0.04664,0.002 0.06962,0.0032 0.123018,0.0071 0.16898,-0.02008 0.216971,-0.128879 0.0067,-0.01425 0.01217,-0.02914 0.0169,-0.04404 0.04461,-0.132765 0.04664,-0.266825 0.02703,-0.405419 -0.02636,-0.180042 -0.08179,-0.349076 -0.174387,-0.507098 -0.04123,-0.07059 -0.08989,-0.1373 -0.125722,-0.209835 -0.05745,-0.117221 -0.153433,-0.198176 -0.260904,-0.266179 -0.06489,-0.04145 -0.101386,-0.09002 -0.104096,-0.162556 -6.76e-4,-0.01618 -0.0026,-0.03173 -0.004,-0.04728 -0.02163,-0.270712 -0.09395,-0.530415 -0.208183,-0.777811 -0.08786,-0.191052 -0.196693,-0.37239 -0.335257,-0.534946 -0.08247,-0.09715 -0.168304,-0.192349 -0.254821,-0.286255 -0.01622,-0.01813 -0.03245,-0.04534 -0.07232,-0.03432 0.0055,0.01684 0.0061,0.03303 0.01419,0.04469 0.04191,0.05958 0.08653,0.117223 0.129101,0.176158 0.04123,0.05699 0.0872,0.111392 0.119637,0.172918 0.05745,0.110098 0.110851,0.222786 0.15749,0.337418 0.07435,0.185871 0.141267,0.376277 0.162221,0.575748 0.02501,0.240921 0.03853,0.482488 0.05813,0.724057 0.01554,0.19429 0.01758,0.389876 0.06354,0.580928 0.05611,0.231207 0.135861,0.45205 0.303488,0.634683 0.01622,0.01684 0.03582,0.03627 0.01893,0.07253 -0.0223,-0.0098 -0.04325,-0.01684 -0.06151,-0.0285 -0.07435,-0.04662 -0.147351,-0.0952 -0.221702,-0.141831 -0.254146,-0.160614 -0.502209,-0.329 -0.727289,-0.526529 -0.146676,-0.128879 -0.289294,-0.261644 -0.434617,-0.391171 -0.04123,-0.03691 -0.08584,-0.06995 -0.129777,-0.102974 -0.0081,-0.0065 -0.02299,-0.0052 -0.05205,-0.01036 0.03312,0.04599 0.05407,0.08096 0.08112,0.111393 0.09801,0.110745 0.197368,0.221491 0.298081,0.330295 0.06489,0.07059 0.129101,0.141831 0.200072,0.206594 0.110175,0.100385 0.222378,0.199474 0.339987,0.29079 0.156138,0.121755 0.314979,0.240272 0.49207,0.334179 0.04191,0.02266 0.08922,0.04534 0.12437,0.102327 -0.04933,-0.0123 -0.08516,-0.02009 -0.120314,-0.03044 -0.05813,-0.01684 -0.11423,-0.0408 -0.173036,-0.05375 -0.235219,-0.05117 -0.472468,-0.04275 -0.704308,0.0098 -0.148703,0.03432 -0.296729,0.09002 -0.363645,0.246102 -0.01488,0.03432 -0.04866,0.0408 -0.08382,0.03239 -0.02029,-0.0052 -0.0392,-0.0149 -0.05948,-0.02073 -0.178443,-0.05635 -0.35283,-0.121755 -0.514375,-0.213719 -0.305515,-0.172271 -0.587373,-0.376277 -0.850307,-0.603598 -0.05272,-0.04598 -0.111526,-0.08613 -0.171684,-0.131469 -0.01352,0.05245 0.02299,0.07383 0.04596,0.09909 0.09733,0.102973 0.193989,0.207243 0.296053,0.305036 0.104096,0.09974 0.210887,0.197528 0.324441,0.28755 0.115583,0.09068 0.2386,0.172919 0.361617,0.255169 0.242656,0.16126 0.492071,0.310863 0.772577,0.407362 0.239952,0.08225 0.483959,0.142481 0.738781,0.151547 0.221025,0.0085 0.440024,-0.0045 0.651586,-0.07319 0.07773,-0.02526 0.152758,-0.0531 0.218998,-0.102326 0.0953,-0.07059 0.160193,-0.205947 0.01893,-0.310865 -0.01419,-0.01101 -0.02434,-0.02784 -0.03582,-0.0421 0.0034,-0.0038 0.0067,-0.0078 0.01082,-0.0123 0.114908,0.0246 0.204129,0.102327 0.308897,0.147661 0.108146,0.04792 0.214265,0.101031 0.321738,0.150252 0.105439,0.04857 0.211562,0.09585 0.317681,0.143775 0.105441,0.04792 0.225082,0.06218 0.324442,0.127584 -0.01488,0.0078 -0.02771,0.01036 -0.04055,0.0091 -0.06489,-0.0078 -0.129778,-0.01943 -0.194666,-0.02396 -0.07232,-0.0045 -0.145322,-0.01036 -0.21697,-0.0032 -0.151406,0.0149 -0.300784,0.04404 -0.441375,0.102327 -0.07097,0.02979 -0.145324,0.0531 -0.210887,0.09131 -0.139916,0.08224 -0.265637,0.183928 -0.369728,0.306332 -0.03989,0.04662 -0.08179,0.05829 -0.140592,0.04987 -0.358914,-0.05246 -0.704985,-0.146365 -1.030778,-0.30115 -0.170332,-0.08096 -0.336608,-0.167738 -0.504912,-0.251283 -0.03177,-0.01554 -0.06556,-0.0272 -0.09801,-0.0408 -0.0026,0.0045 -0.0055,0.0091 -0.0081,0.01361 0.01217,0.01166 0.02366,0.02526 0.03784,0.03562 0.157489,0.12046 0.328496,0.222786 0.50356,0.318635 0.22846,0.124994 0.467737,0.226673 0.715799,0.310218 0.227109,0.07707 0.458273,0.145719 0.697549,0.178748 0.252794,0.03562 0.507617,0.04598 0.76379,0.02979 0.161545,-0.01036 0.321739,-0.03173 0.476524,-0.07836 0.172359,-0.05181 0.3312,-0.13147 0.484634,-0.223434 0.06556,-0.03951 0.114231,-0.07901 0.127749,-0.155434 0.01217,-0.07124 -0.01893,-0.146364 -0.0845,-0.18328 -0.02704,-0.0149 -0.05137,-0.03302 -0.08786,-0.05699 0.04664,-0.01296 0.07367,-0.0058 0.102068,0.0065 0.02907,0.0123 0.06015,0.02591 0.09125,0.0272 0.08584,0.0052 0.166277,0.02526 0.244008,0.05829 0.02501,0.01036 0.05339,0.02266 0.07976,0.02266 0.106795,-0.0013 0.208183,0.02136 0.309571,0.04987 0.02163,0.0065 0.04596,0.0085 0.06895,0.0085 0.0507,0.0013 0.102069,0 0.153434,0 0.0365,0 0.0926,0.04145 0.09463,0.06929 0.0014,0.02396 -0.01824,0.03368 -0.07908,0.03368 -0.129776,0 -0.256849,0.01813 -0.371756,0.08031 -0.04731,0.02591 -0.09057,0.05245 -0.141267,0.03756 -0.02703,0.03173 -0.04529,0.06605 -0.07435,0.08355 -0.06489,0.03887 -0.121665,0.08355 -0.165599,0.14248 -0.03379,0.04599 -0.05949,0.09714 -0.09733,0.139241 -0.0419,0.04792 -0.07435,0.09649 -0.08516,0.158671 -0.0055,0.02914 -0.02771,0.04339 -0.06015,0.04728 -0.143295,0.01878 -0.285914,0.04339 -0.429885,0.05893 -0.116259,0.0123 -0.233193,0.01813 -0.350127,0.02072 -0.04461,6.48e-4 -0.09057,-0.01618 -0.13586,-0.02396 -0.02501,-0.0045 -0.05069,-0.0085 -0.07571,-0.011 -0.03042,-0.0032 -0.06151,-0.0013 -0.09057,-0.0078 -0.104768,-0.02202 -0.209535,-0.04727 -0.314304,-0.07059 -0.04325,-0.0098 -0.08584,-0.0246 -0.13248,-0.01943 0.0196,0.01813 0.04055,0.03173 0.06421,0.04015 0.118961,0.04014 0.2386,0.07901 0.35756,0.118517 0.03514,0.01165 0.07232,0.03562 0.105441,0.03239 0.08381,-0.0098 0.162896,0.01684 0.244008,0.02136 0.02501,0.002 0.05002,0.01036 0.07435,0.01878 0.09801,0.03497 0.19872,0.04857 0.302137,0.0272 0.10747,-0.02202 0.214942,-0.01684 0.320386,0.0038 0.04933,0.01036 0.09057,0.0013 0.136535,-0.0071 0.04664,-0.0085 0.0953,-0.01036 0.142619,-0.01618 0.0067,-6.48e-4 0.01217,-0.0071 0.01893,-0.0091 0.0088,-0.0032 0.01758,-0.0058 0.02704,-0.0078 0.08043,-0.01166 0.161545,-0.02202 0.24198,-0.03627 0.04325,-0.0078 0.08584,-0.02009 0.127073,-0.03432 0.05948,-0.01943 0.116934,-0.04662 0.183174,-0.03821 0.03718,0.0045 0.0676,-0.0123 0.09327,-0.03756 0.01824,-0.01684 0.0365,-0.03627 0.05813,-0.04728 0.06015,-0.03044 0.123693,-0.05375 0.182498,-0.08483 0.125044,-0.06541 0.272396,-0.100384 0.350127,-0.232501 0.0055,-0.0091 0.01758,-0.01425 0.02569,-0.02266 0.01419,-0.0149 0.02839,-0.02979 0.04055,-0.04598 0.06219,-0.08744 0.03853,-0.161262 -0.06151,-0.200768 -0.03448,-0.01361 -0.06895,-0.02784 -0.08314,-0.06476 0.03989,-0.03173 0.0507,-0.03756 0.08584,-0.01618 0.048,0.02979 0.100042,0.03497 0.153434,0.04145 0.06016,0.0065 0.12099,0.01425 0.180471,0.02397 0.05339,0.0091 0.106122,0.03173 0.158165,0.02914 0.06826,-0.0032 0.135861,0.01166 0.201424,0.0085 0.07706,-0.0032 0.134509,0.05181 0.208859,0.04404 0.0061,-6.48e-4 0.01893,0.01554 0.01893,0.02396 0,0.0085 -0.0095,0.02202 -0.01758,0.0246 -0.0223,0.0071 -0.04664,0.0058 -0.06895,0.01296 -0.0392,0.01296 -0.07908,0.02526 -0.114907,0.04533 -0.102068,0.05829 -0.202101,0.119813 -0.302136,0.181338 -0.02501,0.01554 -0.05205,0.03173 -0.06962,0.05375 -0.04731,0.06087 -0.08584,0.128232 -0.136536,0.18652 -0.05746,0.06605 -0.09125,0.137947 -0.104769,0.222138 -0.01013,0.06605 -0.03244,0.130823 -0.04191,0.196881 -0.0169,0.115279 6.75e-4,0.228616 0.04866,0.335475 0.06285,0.139242 0.152758,0.259056 0.305516,0.31799 0.291321,0.113336 0.612384,0.04599 0.794882,-0.252579 0.01825,-0.03044 0.03514,-0.06605 0.03784,-0.100382 0.0034,-0.04728 0.01554,-0.09068 0.02973,-0.135356 0.01082,-0.03368 0.01149,-0.07383 -0.03042,-0.111394 -0.0169,0.03432 -0.03312,0.06087 -0.04461,0.08937 -0.04325,0.113336 -0.112878,0.204653 -0.22846,0.259701 -0.04191,0.02009 -0.08179,0.04987 -0.126397,0.05699 -0.198721,0.03368 -0.372432,-0.05117 -0.465033,-0.208539 -0.06894,-0.118516 -0.08922,-0.25452 -0.04529,-0.391819 0.0095,-0.02979 0.0223,-0.06153 0.01893,-0.09131 -0.0074,-0.06995 0.02771,-0.113983 0.08112,-0.152195 0.01488,-0.01101 0.03177,-0.02266 0.03853,-0.03821 0.03042,-0.06995 0.09125,-0.111394 0.150055,-0.156081 0.139916,-0.10686 0.296729,-0.18069 0.472468,-0.210483 0.185203,-0.03173 0.373108,-0.02396 0.560338,-0.01165 0.209535,0.01296 0.419745,0.03756 0.629957,0.04014 0.347423,0.0045 0.692818,-0.0246 1.02875,-0.113335 0.141943,-0.03756 0.281183,-0.08483 0.421099,-0.128232 0.01352,-0.0038 0.02366,-0.01618 0.03784,-0.02656 -0.048,-0.02396 -0.048,-0.0246 -0.104095,-0.0149 -0.173712,0.02979 -0.348098,0.03821 -0.523838,0.01943 -0.333229,-0.03627 -0.652939,-0.116575 -0.958455,-0.249988 -0.113554,-0.04987 -0.217646,-0.123051 -0.343367,-0.145718 -0.0087,-0.0013 -0.0169,-0.0078 -0.02434,-0.01296 -0.179119,-0.123699 -0.348098,-0.257759 -0.494774,-0.416429 -0.048,-0.05181 -0.106795,-0.100384 -0.137211,-0.160615 -0.04866,-0.09909 -0.109499,-0.190405 -0.170333,-0.282369 -0.09598,-0.146365 -0.158164,-0.309568 -0.229812,-0.46824 -0.02907,-0.06606 -0.06354,-0.130174 -0.08584,-0.198177 -0.08112,-0.242862 -0.15749,-0.487669 -0.236573,-0.73118 -0.01554,-0.04922 -0.0419,-0.09585 -0.05408,-0.145717 -0.02163,-0.09261 -0.05475,-0.180043 -0.100714,-0.263589 -0.08043,-0.146364 -0.124369,-0.310216 -0.237247,-0.439744 -0.0055,-0.0065 -0.0055,-0.01684 -0.0095,-0.02526 -0.02839,-0.05375 -0.05272,-0.108802 -0.08516,-0.160614 -0.05813,-0.09391 -0.116258,-0.189755 -0.183174,-0.277834 -0.09733,-0.128881 -0.204804,-0.249988 -0.322413,-0.363323 -0.137889,-0.133414 -0.289971,-0.250637 -0.469089,-0.325762 -0.187906,-0.07966 -0.382571,-0.09002 -0.567098,0.0123 -0.1291,0.07188 -0.189933,0.187165 -0.192637,0.330294 -6.75e-4,0.01749 0.0081,0.03497 0.01284,0.05245 0.0055,6.47e-4 0.01149,6.47e-4 0.0169,6.47e-4 0.0067,-0.01814 0.01217,-0.03627 0.02095,-0.0531 0.02163,-0.04469 0.03784,-0.09261 0.06826,-0.130823 0.08314,-0.106211 0.2021,-0.139241 0.335255,-0.133413 0.119639,0.0052 0.218999,0.05893 0.317007,0.11787 0.20548,0.123052 0.37108,0.28755 0.518432,0.468241 0.09192,0.112688 0.166952,0.238329 0.241302,0.362675 0.05205,0.08679 0.09192,0.18069 0.133156,0.273302 0.01554,0.03562 0.02299,0.07188 0.06015,0.0952 0.01082,0.0078 0.01622,0.02591 0.02095,0.04015 0.0061,0.01878 0.0074,0.03951 0.01352,0.05893 0.04259,0.130175 0.09057,0.259055 0.126396,0.391173 0.06624,0.242863 0.125046,0.487021 0.185203,0.73118 0.02095,0.08289 0.03514,0.16709 0.05611,0.249986 0.03245,0.130177 0.06826,0.260351 0.102741,0.390525 0.0034,0.01296 0.0067,0.02591 0.01217,0.03821 0.08043,0.164499 0.160869,0.328999 0.241304,0.493499 0.0047,0.0098 0.01082,0.01943 0.01758,0.02914 0.08855,0.13147 0.174387,0.264883 0.266988,0.39441 0.08043,0.112688 0.164924,0.224081 0.300785,0.284311 0.01013,0.0045 0.0223,0.0098 0.02906,0.01813 0.0087,0.011 0.01284,0.02591 0.01893,0.03887 -0.01419,0.0045 -0.0284,0.01361 -0.04259,0.01296 -0.02771,-0.0013 -0.05948,-0.01878 -0.08179,-0.01036 -0.05069,0.01943 -0.09666,0.0065 -0.144647,-0.0013 -0.07301,-0.0123 -0.146675,-0.02461 -0.22035,-0.03627 -0.0095,-0.0013 -0.0196,-0.0026 -0.02771,0 -0.06421,0.01684 -0.127072,0.0013 -0.187905,-0.0098 -0.07435,-0.01361 -0.144647,-0.03821 -0.223053,-0.03173 -0.05002,0.0038 -0.102069,-0.01165 -0.152759,-0.01749 -0.08584,-0.0098 -0.172359,-0.01618 -0.248738,-0.05764 -0.004,-0.0531 -0.0034,-0.104917 -0.01284,-0.154786 -0.0095,-0.05181 -0.04731,-0.09714 -0.03853,-0.154785 0.0014,-0.0091 -0.0081,-0.02008 -0.01419,-0.02979 -0.02501,-0.04339 -0.04866,-0.08744 -0.07637,-0.128881 -0.05137,-0.07771 -0.09936,-0.157374 -0.158842,-0.228614 -0.167627,-0.199472 -0.374459,-0.350372 -0.626578,-0.440393 -0.02636,-0.0098 -0.05339,-0.01943 -0.08043,-0.02202 -0.0676,-0.0058 -0.135183,-0.01036 -0.202775,-0.01101 -0.0899,-6.48e-4 -0.115582,-0.01618 -0.146,-0.09585 -0.004,-0.01036 -0.0074,-0.02136 -0.01352,-0.03044 -0.06083,-0.0952 -0.120991,-0.1917 -0.185202,-0.285608 -0.07773,-0.113984 -0.153434,-0.229911 -0.239952,-0.338713 -0.143971,-0.18069 -0.310923,-0.340656 -0.496125,-0.482488 -0.0169,-0.01296 -0.03582,-0.02332 -0.06489,-0.04145"
     id="path3504" /><path
     inkscape:connector-curvature="0"
     style="fill:#ffffff"
     d="m 22.340425,48.437473 c -0.0081,0.002 -0.01622,0.0038 -0.02434,0.0058 0.01893,0.116575 0.03109,0.234443 0.0588,0.349076 0.07096,0.29014 0.137212,0.581577 0.260904,0.856821 0.05272,0.119813 0.105441,0.239626 0.162222,0.357496 0.05611,0.115926 0.13248,0.220842 0.207507,0.327055 0.131129,0.18652 0.28659,0.347781 0.482608,0.472127 0.30484,0.192995 0.634688,0.272006 0.996306,0.189109 0.09733,-0.02202 0.193312,-0.05181 0.26969,-0.121109 0.06219,-0.05699 0.07841,-0.12564 0.04664,-0.19688 -0.02637,-0.06087 -0.06556,-0.119166 -0.109499,-0.170328 -0.04259,-0.04987 -0.0953,-0.09261 -0.148703,-0.132765 -0.256173,-0.195586 -0.540736,-0.321227 -0.877343,-0.305036 -0.140592,0.0071 -0.279832,0.02009 -0.395415,0.112688 -0.05205,0.04145 -0.09395,0.03303 -0.13721,-0.02656 -0.08786,-0.121107 -0.173036,-0.244158 -0.253472,-0.370446 -0.04664,-0.07448 -0.08179,-0.156081 -0.121665,-0.234445 -0.08652,-0.169033 -0.168979,-0.33936 -0.224405,-0.521346 -0.05339,-0.178748 -0.110851,-0.3562 -0.166952,-0.533652 -0.0061,-0.02008 -0.0169,-0.03821 -0.02569,-0.05765"
     id="path3506" /><path
     inkscape:connector-curvature="0"
     style="fill:#ffffff"
     d="m 21.757106,46.441461 c -0.0034,0.0038 -0.0067,0.0085 -0.01013,0.0123 0.0507,0.05765 0.101385,0.115927 0.153433,0.172919 0.0926,0.101031 0.187906,0.199471 0.278479,0.301798 0.106123,0.119164 0.212916,0.237034 0.309572,0.363971 0.125045,0.163203 0.243331,0.329646 0.346747,0.505155 0.125721,0.212425 0.237923,0.431973 0.327821,0.661884 0.08246,0.209185 0.164925,0.418371 0.241303,0.629501 0.04325,0.118518 0.09057,0.23574 0.145999,0.349076 0.0703,0.141832 0.165601,0.270064 0.275775,0.387285 0.08043,0.08549 0.171683,0.159318 0.283211,0.205949 0.08382,0.03497 0.169655,0.06218 0.265636,0.04404 0.0365,-0.0071 0.05611,-0.0246 0.07232,-0.0544 0.0365,-0.06735 0.0365,-0.137947 0.03177,-0.209833 -0.0055,-0.08678 -0.04529,-0.1645 -0.06624,-0.24675 -0.03379,-0.132118 -0.100041,-0.251283 -0.166277,-0.369152 -0.06489,-0.113984 -0.144647,-0.2189 -0.23522,-0.317342 -0.114906,-0.124346 -0.248738,-0.222786 -0.402172,-0.299208 -0.04529,-0.02332 -0.09261,-0.04404 -0.134508,-0.07253 -0.03177,-0.02137 -0.06219,-0.04857 -0.08247,-0.07966 -0.103413,-0.165147 -0.204127,-0.332236 -0.305516,-0.498679 -0.0953,-0.156729 -0.194664,-0.310866 -0.306867,-0.457879 -0.151406,-0.199472 -0.311599,-0.391819 -0.491394,-0.568624 -0.135184,-0.133412 -0.276451,-0.261645 -0.415015,-0.391171 -0.03379,-0.03044 -0.07165,-0.0544 -0.116258,-0.06865"
     id="path3508" /><path
     inkscape:connector-curvature="0"
     style="fill:#ffffff"
     d="m 23.484757,47.099459 c -0.0034,0.0038 -0.0067,0.0078 -0.01013,0.0123 0.01488,0.01813 0.02771,0.03821 0.04529,0.0544 0.05475,0.05247 0.11288,0.101031 0.1656,0.154784 0.100714,0.102328 0.201425,0.205301 0.296729,0.312161 0.06691,0.07513 0.130453,0.152842 0.184527,0.236387 0.08922,0.136651 0.170332,0.278483 0.23184,0.429382 0.06826,0.167738 0.121665,0.340009 0.142619,0.51746 0.02365,0.202711 0.03785,0.406716 0.04529,0.610074 0.0081,0.221491 0.07165,0.428087 0.153433,0.631444 0.05678,0.139889 0.151407,0.257759 0.256851,0.366562 0.05341,0.0557 0.118962,0.100384 0.196017,0.126936 0.09261,0.03239 0.153434,0.0091 0.191961,-0.07901 0.0169,-0.03887 0.0284,-0.08031 0.03988,-0.121756 0.04461,-0.154785 0.03042,-0.311512 0.0055,-0.466945 -0.01352,-0.08355 -0.03448,-0.169033 -0.0703,-0.245453 -0.05813,-0.124347 -0.128424,-0.243511 -0.19872,-0.362029 -0.06354,-0.106211 -0.151406,-0.192996 -0.254146,-0.265531 -0.03379,-0.02396 -0.06895,-0.04727 -0.09869,-0.07577 -0.0169,-0.01554 -0.03042,-0.03951 -0.03582,-0.06153 -0.0392,-0.152842 -0.08314,-0.303095 -0.152757,-0.446221 -0.0284,-0.05893 -0.06354,-0.115279 -0.08855,-0.17551 -0.05678,-0.136651 -0.145324,-0.255815 -0.22711,-0.378219 -0.06421,-0.09585 -0.14397,-0.181985 -0.218321,-0.270712 -0.15749,-0.185871 -0.350803,-0.334826 -0.547496,-0.47925 -0.01554,-0.01101 -0.0365,-0.01618 -0.05339,-0.02396"
     id="path3510" /><path
     inkscape:connector-curvature="0"
     style="fill:#ffffff"
     d="m 27.250984,50.026771 c 0.02907,0.01813 0.048,0.0285 0.06489,0.04145 0.185202,0.141834 0.352154,0.301799 0.496124,0.482489 0.08652,0.108802 0.162221,0.224729 0.239952,0.338714 0.06421,0.09391 0.12437,0.190404 0.185203,0.285607 0.0061,0.0091 0.0095,0.02009 0.01352,0.03045 0.03042,0.07966 0.05611,0.0952 0.145999,0.09585 0.0676,6.48e-4 0.135185,0.0052 0.202777,0.01101 0.02703,0.0026 0.05407,0.0123 0.08043,0.02202 0.252119,0.09002 0.45895,0.24092 0.626578,0.440391 0.05949,0.07124 0.107472,0.150901 0.158841,0.228616 0.02771,0.04145 0.05138,0.08549 0.07637,0.128881 0.0061,0.0098 0.01554,0.02072 0.01419,0.02979 -0.0088,0.05765 0.02906,0.102975 0.03853,0.154786 0.0095,0.04986 0.0088,0.101678 0.01284,0.154785 0.07637,0.04145 0.162897,0.04793 0.248738,0.05763 0.0507,0.0058 0.102741,0.02138 0.152759,0.01749 0.0784,-0.0065 0.148702,0.01814 0.223054,0.03173 0.06083,0.01101 0.123692,0.02656 0.187905,0.0098 0.0081,-0.0026 0.01824,-0.0013 0.02771,0 0.07367,0.01166 0.147351,0.02396 0.220351,0.03627 0.048,0.0078 0.09395,0.02072 0.144646,0.0013 0.0223,-0.0085 0.05408,0.0091 0.08179,0.01036 0.01419,6.48e-4 0.02839,-0.0085 0.04259,-0.01296 -0.0061,-0.01296 -0.01013,-0.02784 -0.01893,-0.03887 -0.0067,-0.0085 -0.01893,-0.01361 -0.02907,-0.01813 -0.135859,-0.06023 -0.220349,-0.171624 -0.300784,-0.284313 -0.09261,-0.129526 -0.178442,-0.262939 -0.266988,-0.394409 -0.0067,-0.0098 -0.01284,-0.01943 -0.01758,-0.02914 -0.08043,-0.164499 -0.16087,-0.328999 -0.241304,-0.493497 -0.0055,-0.0123 -0.0088,-0.02526 -0.01217,-0.03821 -0.03448,-0.130175 -0.0703,-0.26035 -0.102741,-0.390524 -0.02095,-0.08289 -0.03514,-0.167089 -0.05611,-0.249987 -0.06015,-0.244159 -0.118961,-0.488317 -0.185202,-0.731181 -0.03582,-0.132118 -0.08382,-0.260997 -0.126396,-0.391172 -0.0061,-0.01943 -0.0074,-0.04014 -0.01352,-0.05893 -0.0047,-0.01424 -0.01013,-0.03239 -0.02095,-0.04014 -0.03718,-0.02332 -0.04461,-0.05958 -0.06015,-0.0952 -0.04123,-0.09261 -0.08111,-0.18652 -0.133157,-0.273302 -0.07435,-0.124347 -0.149378,-0.249986 -0.241302,-0.362675 -0.147351,-0.180691 -0.312952,-0.345191 -0.518431,-0.468243 -0.09801,-0.05893 -0.197368,-0.112688 -0.317007,-0.117868 -0.133155,-0.0058 -0.252117,0.0272 -0.335255,0.133413 -0.03042,0.03821 -0.04664,0.08613 -0.06826,0.130823 -0.0088,0.01684 -0.01419,0.03497 -0.02096,0.0531 -0.0055,0 -0.01149,0 -0.0169,-6.48e-4 -0.0047,-0.01749 -0.01352,-0.03497 -0.01284,-0.05245 0.0026,-0.143127 0.06354,-0.258407 0.192638,-0.330294 0.184526,-0.102327 0.37919,-0.09197 0.567096,-0.0123 0.179119,0.07513 0.331201,0.192348 0.469089,0.325761 0.11761,0.113335 0.225081,0.234443 0.322414,0.363323 0.06691,0.08807 0.125045,0.183929 0.183174,0.277835 0.03244,0.05182 0.05678,0.106861 0.08516,0.160614 0.004,0.0085 0.004,0.01878 0.0095,0.02526 0.112879,0.129527 0.156813,0.293378 0.237247,0.439745 0.04596,0.08355 0.07908,0.170974 0.100713,0.263587 0.01217,0.04987 0.03853,0.0965 0.05408,0.145717 0.07908,0.243512 0.155462,0.488318 0.236572,0.731181 0.0223,0.06801 0.05678,0.132117 0.08584,0.198177 0.07165,0.15867 0.133832,0.321874 0.229812,0.468241 0.06083,0.09196 0.121666,0.183279 0.170333,0.282368 0.03042,0.06023 0.08922,0.108803 0.137211,0.160614 0.146675,0.158671 0.315655,0.292731 0.494773,0.41643 0.0074,0.0052 0.01554,0.01166 0.02434,0.01296 0.125721,0.02266 0.229813,0.09585 0.343367,0.145717 0.305516,0.133413 0.625227,0.213721 0.958454,0.249988 0.17574,0.01878 0.350127,0.01036 0.523838,-0.01943 0.0561,-0.0098 0.0561,-0.0091 0.104096,0.0149 -0.01419,0.01036 -0.02434,0.02266 -0.03784,0.02656 -0.139916,0.04339 -0.279155,0.09067 -0.421098,0.128232 -0.335932,0.08873 -0.681328,0.117869 -1.02875,0.113336 -0.210212,-0.0026 -0.420423,-0.02784 -0.629958,-0.04015 -0.187229,-0.0123 -0.375135,-0.02008 -0.560338,0.01166 -0.175739,0.02979 -0.332552,0.103622 -0.472468,0.210483 -0.0588,0.04469 -0.119637,0.08613 -0.150054,0.15608 -0.0067,0.01554 -0.02366,0.0272 -0.03853,0.03821 -0.05339,0.03821 -0.08855,0.08225 -0.08112,0.152195 0.0034,0.02979 -0.0095,0.06153 -0.01893,0.09131 -0.04394,0.137299 -0.02366,0.273303 0.04529,0.39182 0.09261,0.157374 0.266312,0.242215 0.465033,0.208538 0.04461,-0.0071 0.08449,-0.03692 0.126397,-0.05699 0.115582,-0.05505 0.185202,-0.146365 0.228461,-0.259701 0.01149,-0.0285 0.02771,-0.05505 0.04461,-0.08937 0.04191,0.03756 0.04123,0.07771 0.03042,0.111393 -0.01419,0.04469 -0.02637,0.08807 -0.02973,0.135356 -0.0026,0.03432 -0.0196,0.06995 -0.03784,0.100383 -0.182499,0.298559 -0.503561,0.365915 -0.794882,0.252578 -0.152759,-0.05893 -0.242656,-0.178748 -0.305515,-0.31799 -0.048,-0.10686 -0.06556,-0.220195 -0.04866,-0.335474 0.0095,-0.06605 0.03177,-0.130823 0.04191,-0.196881 0.01352,-0.08419 0.04731,-0.156081 0.104768,-0.22214 0.0507,-0.05829 0.08922,-0.125641 0.136535,-0.186518 0.01758,-0.02202 0.04461,-0.03821 0.06962,-0.05375 0.10003,-0.06153 0.200072,-0.123052 0.302136,-0.181338 0.03582,-0.02008 0.07571,-0.03239 0.114907,-0.04534 0.0223,-0.0071 0.04664,-0.0058 0.06895,-0.01296 0.0081,-0.0026 0.01758,-0.01618 0.01758,-0.0246 0,-0.0085 -0.01284,-0.0246 -0.01893,-0.02397 -0.07435,0.0078 -0.131806,-0.04728 -0.20886,-0.04404 -0.06556,0.0032 -0.133157,-0.01165 -0.201424,-0.0085 -0.05205,0.0026 -0.104769,-0.02009 -0.158166,-0.02914 -0.05949,-0.0098 -0.120313,-0.01749 -0.18047,-0.02396 -0.05339,-0.0065 -0.10544,-0.01165 -0.153434,-0.04145 -0.03514,-0.02136 -0.04596,-0.01554 -0.08584,0.01618 0.01419,0.03692 0.04866,0.05117 0.08314,0.06477 0.100031,0.03951 0.123693,0.113336 0.06151,0.200767 -0.01217,0.01618 -0.02636,0.03108 -0.04055,0.04598 -0.0081,0.0085 -0.02029,0.01361 -0.02568,0.02266 -0.07773,0.132118 -0.225083,0.167088 -0.350127,0.2325 -0.0588,0.03108 -0.122342,0.0544 -0.182498,0.08483 -0.02163,0.01101 -0.03989,0.03044 -0.05813,0.04728 -0.02568,0.02526 -0.0561,0.0421 -0.09327,0.03756 -0.06624,-0.0085 -0.123693,0.01878 -0.183174,0.03821 -0.04123,0.01425 -0.08381,0.02656 -0.127073,0.03432 -0.08043,0.01424 -0.161545,0.0246 -0.241979,0.03627 -0.0095,0.002 -0.01825,0.0045 -0.02704,0.0078 -0.0067,0.002 -0.01217,0.0085 -0.01893,0.0091 -0.04731,0.0058 -0.09598,0.0078 -0.14262,0.01618 -0.04596,0.0085 -0.0872,0.01749 -0.136535,0.0071 -0.105441,-0.02071 -0.212916,-0.02591 -0.320386,-0.0038 -0.103413,0.02137 -0.204128,0.0078 -0.302137,-0.02719 -0.02434,-0.0085 -0.04933,-0.01684 -0.07435,-0.01878 -0.08112,-0.0045 -0.160193,-0.03108 -0.244008,-0.02136 -0.03312,0.0032 -0.0703,-0.02073 -0.105441,-0.03239 -0.11896,-0.03951 -0.238598,-0.07836 -0.35756,-0.118517 -0.02366,-0.0085 -0.04461,-0.02202 -0.06421,-0.04015 0.04664,-0.0052 0.08922,0.0098 0.13248,0.01943 0.104768,0.02332 0.209536,0.04857 0.314303,0.07059 0.02906,0.0065 0.06015,0.0045 0.09057,0.0078 0.02501,0.0026 0.0507,0.0065 0.07571,0.01101 0.04529,0.0078 0.09125,0.02461 0.135859,0.02396 0.116934,-0.0026 0.233868,-0.0085 0.350127,-0.02072 0.143971,-0.01554 0.28659,-0.04014 0.429885,-0.05893 0.03245,-0.0038 0.05474,-0.01814 0.06015,-0.04728 0.01081,-0.06217 0.04325,-0.110745 0.08516,-0.15867 0.03785,-0.0421 0.06354,-0.09326 0.09733,-0.139241 0.04394,-0.05893 0.100713,-0.103622 0.165599,-0.142482 0.02906,-0.01749 0.04731,-0.05181 0.07435,-0.08355 0.0507,0.0149 0.09395,-0.01165 0.141268,-0.03756 0.114906,-0.06217 0.241979,-0.08031 0.371755,-0.08031 0.06083,0 0.08043,-0.0098 0.07908,-0.03368 -0.0021,-0.02784 -0.05813,-0.06929 -0.09463,-0.06929 -0.05137,0 -0.102741,0.0013 -0.153434,0 -0.02299,0 -0.04731,-0.002 -0.06895,-0.0085 -0.101387,-0.0285 -0.202777,-0.05117 -0.309571,-0.04987 -0.02637,0 -0.05475,-0.0123 -0.07976,-0.02266 -0.07773,-0.03302 -0.158165,-0.0531 -0.244008,-0.05829 -0.03109,-0.0013 -0.06218,-0.0149 -0.09125,-0.0272 -0.02839,-0.0123 -0.05543,-0.01943 -0.102069,-0.0065 0.0365,0.02396 0.06083,0.0421 0.08786,0.05699 0.06556,0.03692 0.09666,0.11204 0.0845,0.18328 -0.01352,0.07641 -0.06219,0.115928 -0.127749,0.155433 -0.153435,0.09197 -0.312276,0.171623 -0.484635,0.223434 -0.154785,0.04662 -0.314978,0.06801 -0.476523,0.07836 -0.256174,0.01618 -0.510996,0.0058 -0.76379,-0.02979 -0.239276,-0.03302 -0.470441,-0.101679 -0.69755,-0.178748 -0.248062,-0.08355 -0.487339,-0.185222 -0.715799,-0.310217 -0.175063,-0.09585 -0.34607,-0.198176 -0.50356,-0.318636 -0.01419,-0.01036 -0.02569,-0.02396 -0.03784,-0.03562 0.0026,-0.0045 0.0055,-0.0091 0.0081,-0.01361 0.03245,0.01361 0.06624,0.02526 0.09801,0.0408 0.168305,0.08355 0.334581,0.170329 0.504912,0.251283 0.325793,0.154784 0.671865,0.248692 1.030778,0.301149 0.0588,0.0085 0.100714,-0.0032 0.140592,-0.04986 0.104096,-0.122403 0.229812,-0.224082 0.369728,-0.306332 0.06556,-0.03821 0.139915,-0.06153 0.210887,-0.09131 0.140592,-0.05829 0.28997,-0.08744 0.441376,-0.102327 0.07165,-0.0071 0.144646,-0.0013 0.216969,0.0032 0.06489,0.0045 0.129778,0.01618 0.194666,0.02396 0.01284,0.0013 0.02568,-0.0013 0.04055,-0.0091 -0.09936,-0.0654 -0.218998,-0.07966 -0.324442,-0.127584 -0.106123,-0.04792 -0.212239,-0.0952 -0.317682,-0.143775 -0.107472,-0.04922 -0.213592,-0.102326 -0.321738,-0.150252 -0.104768,-0.04534 -0.193989,-0.123052 -0.308896,-0.147661 -0.004,0.0045 -0.0074,0.0085 -0.01082,0.0123 0.01149,0.01425 0.02163,0.03108 0.03582,0.0421 0.141266,0.104917 0.07637,0.240272 -0.01893,0.310864 -0.06624,0.04923 -0.141266,0.07707 -0.218997,0.102328 -0.211563,0.06865 -0.430562,0.08161 -0.651587,0.07319 -0.254822,-0.0091 -0.498829,-0.06929 -0.738781,-0.151547 -0.280506,-0.0965 -0.529921,-0.246101 -0.772576,-0.407362 -0.123018,-0.08224 -0.246035,-0.1645 -0.361618,-0.255169 -0.113554,-0.09002 -0.220349,-0.187815 -0.324441,-0.287549 -0.102068,-0.09779 -0.198721,-0.202064 -0.296053,-0.305037 -0.02299,-0.02526 -0.05948,-0.04662 -0.04596,-0.09909 0.06015,0.04533 0.118962,0.08549 0.171684,0.13147 0.262933,0.227321 0.544791,0.431326 0.850307,0.603597 0.161545,0.09197 0.335932,0.157375 0.514375,0.213719 0.02027,0.0058 0.0392,0.01555 0.05948,0.02072 0.03514,0.0085 0.06895,0.002 0.08382,-0.03239 0.06691,-0.15608 0.214942,-0.211777 0.363645,-0.246102 0.231841,-0.05246 0.469089,-0.06087 0.704308,-0.0098 0.0588,0.01296 0.114907,0.03692 0.173036,0.05375 0.03514,0.01036 0.07097,0.01813 0.120315,0.03045 -0.03514,-0.05699 -0.08247,-0.07966 -0.124371,-0.102327 -0.177091,-0.09391 -0.335932,-0.212424 -0.492069,-0.33418 -0.11761,-0.09131 -0.229813,-0.190405 -0.339988,-0.290789 -0.07096,-0.06476 -0.135184,-0.136002 -0.200072,-0.206594 -0.100714,-0.108804 -0.200072,-0.219549 -0.298081,-0.330294 -0.02703,-0.03045 -0.048,-0.06541 -0.08112,-0.111394 0.02907,0.0052 0.04394,0.0038 0.05205,0.01036 0.04394,0.03302 0.08855,0.06606 0.129778,0.102975 0.145322,0.129527 0.287941,0.262292 0.434616,0.391171 0.225081,0.197529 0.473143,0.365915 0.727289,0.526528 0.07435,0.04662 0.147352,0.0952 0.221702,0.141833 0.01825,0.01165 0.0392,0.01878 0.06151,0.0285 0.0169,-0.03627 -0.0026,-0.0557 -0.01893,-0.07253 -0.167628,-0.182632 -0.247387,-0.403476 -0.303489,-0.634682 -0.04596,-0.191052 -0.048,-0.386638 -0.06354,-0.580929 -0.0196,-0.241568 -0.03312,-0.483135 -0.05813,-0.724057 -0.02096,-0.199471 -0.08786,-0.389876 -0.162222,-0.575747 -0.04664,-0.114631 -0.100042,-0.22732 -0.15749,-0.337417 -0.03244,-0.06153 -0.07841,-0.115928 -0.119637,-0.17292 -0.04259,-0.05893 -0.0872,-0.116574 -0.129101,-0.176157 -0.0081,-0.01166 -0.0088,-0.02784 -0.01419,-0.04469 0.03988,-0.011 0.0561,0.01618 0.07232,0.03432 0.08652,0.09391 0.172359,0.18911 0.254821,0.286255 0.138564,0.162556 0.247387,0.343894 0.335257,0.534947 0.114231,0.247396 0.186554,0.507098 0.208183,0.77781 0.0014,0.01555 0.0034,0.03108 0.004,0.04728 0.0026,0.07253 0.0392,0.121107 0.104097,0.162556 0.10747,0.06801 0.20345,0.148956 0.260904,0.266178 0.03582,0.07253 0.08449,0.139243 0.125721,0.209835 0.09261,0.158023 0.148026,0.327055 0.174388,0.507098 0.0196,0.138593 0.01758,0.272654 -0.02704,0.405419 -0.0047,0.0149 -0.01013,0.02979 -0.0169,0.04404 -0.048,0.108803 -0.09395,0.136004 -0.216971,0.12888 -0.02299,-0.0013 -0.04664,-0.002 -0.06962,-0.0032 -0.0021,0 -0.004,0.002 -0.01217,0.0052 0.0095,0.0098 0.01622,0.02073 0.02636,0.02591 0.126397,0.06477 0.251441,0.130822 0.37919,0.191699 0.159518,0.07513 0.321738,0.14572 0.48193,0.218903 0.03379,0.01554 0.06421,0.03756 0.09869,0.05181 0.03244,0.01424 0.06826,0.02266 0.10274,0.03367 0.004,-0.0052 0.0074,-0.0098 0.01149,-0.01425 -0.0081,-0.01361 -0.01352,-0.03045 -0.02501,-0.03951 -0.164924,-0.127585 -0.241979,-0.309571 -0.327145,-0.487023 -0.0088,-0.01813 -0.01758,-0.03627 -0.02704,-0.0544 -0.0392,-0.06995 -0.06151,-0.144421 -0.08179,-0.220842 -0.06354,-0.235092 -0.0872,-0.476014 -0.120314,-0.715638 -0.0196,-0.141832 -0.04394,-0.283664 -0.08043,-0.422258 -0.04123,-0.154139 -0.09666,-0.303742 -0.177767,-0.444926 -0.07367,-0.128232 -0.154109,-0.250636 -0.261582,-0.355552 -0.04055,-0.04014 -0.03853,-0.0421 -0.04933,-0.09779 0.02771,0.01749 0.04866,0.02784 0.06556,0.04275 0.209535,0.181985 0.367701,0.399591 0.482607,0.646341 0.0845,0.179394 0.161545,0.362028 0.212915,0.553728 0.0223,0.08483 0.04731,0.168385 0.07097,0.252577 0.01082,0.0408 0.04259,0.06282 0.07773,0.08161 0.11761,0.06153 0.227785,0.133413 0.331877,0.213721 0.123017,0.0952 0.22846,0.205299 0.323766,0.325112 0.127749,0.159967 0.229813,0.332237 0.281858,0.52847 0.02299,0.08873 0.04123,0.179395 0.01419,0.272655 -0.01488,0.05051 -0.03582,0.09131 -0.09327,0.106861 -0.01488,0.0038 -0.02771,0.01618 -0.05137,0.03108 0.02299,0.01361 0.03853,0.02655 0.05611,0.03173 0.221701,0.06411 0.444755,0.125641 0.673217,0.163852 0.02501,0.0045 0.04933,0.0149 0.07435,0.01813 0.01352,0.002 0.02839,-0.0038 0.05136,-0.0085 -0.01284,-0.01618 -0.01758,-0.02721 -0.02636,-0.03239 -0.197368,-0.12046 -0.329172,-0.292732 -0.440699,-0.486374 -0.104096,-0.181987 -0.189934,-0.368505 -0.256174,-0.566034 -0.04461,-0.13406 -0.09869,-0.266825 -0.164924,-0.392467 -0.06151,-0.117221 -0.140592,-0.227319 -0.219675,-0.335476 -0.07908,-0.107507 -0.166952,-0.209833 -0.253469,-0.312807 -0.02704,-0.03304 -0.06151,-0.06087 -0.09192,-0.09197 -0.02299,-0.02332 -0.05137,-0.04404 -0.05813,-0.09585"
     id="path3512" /><path
     inkscape:connector-curvature="0"
     style="fill:#ffffff"
     d="m 22.340425,48.437473 c 0.0088,0.01878 0.0196,0.03756 0.02568,0.05765 0.05611,0.177453 0.113554,0.354905 0.166953,0.533652 0.05543,0.181986 0.137887,0.352313 0.224405,0.521347 0.03988,0.07836 0.07503,0.159966 0.121665,0.234443 0.08044,0.126291 0.1656,0.249341 0.253471,0.370449 0.04325,0.05958 0.08516,0.06801 0.137211,0.02656 0.115583,-0.09261 0.254823,-0.105565 0.395414,-0.112689 0.336608,-0.01618 0.621171,0.109451 0.877343,0.305037 0.05339,0.04015 0.106124,0.08289 0.148704,0.132765 0.04394,0.05117 0.08314,0.10945 0.109499,0.170328 0.03177,0.07124 0.01554,0.139889 -0.04664,0.19688 -0.07637,0.06929 -0.172359,0.09909 -0.269691,0.121109 -0.361618,0.08289 -0.691466,0.0039 -0.996306,-0.18911 -0.196017,-0.124346 -0.351478,-0.285607 -0.482607,-0.472126 -0.07503,-0.106212 -0.151406,-0.211129 -0.207507,-0.327056 -0.05678,-0.11787 -0.109499,-0.237682 -0.162222,-0.357495 -0.123693,-0.275245 -0.189933,-0.566681 -0.260905,-0.856821 -0.02771,-0.114632 -0.03988,-0.232502 -0.0588,-0.349076 0.0081,-0.002 0.01622,-0.0032 0.02434,-0.0058"
     id="path3514" /><path
     inkscape:connector-curvature="0"
     style="fill:#ffffff"
     d="m 21.757106,46.441461 c 0.04461,0.01361 0.08247,0.03756 0.116259,0.06865 0.138563,0.129527 0.27983,0.257759 0.415014,0.391171 0.179795,0.176805 0.339988,0.369154 0.491395,0.568624 0.112202,0.147015 0.211562,0.301151 0.306867,0.457879 0.101386,0.166442 0.2021,0.333533 0.305515,0.498679 0.02029,0.03108 0.0507,0.0583 0.08247,0.07966 0.04191,0.0285 0.08922,0.04923 0.134509,0.07253 0.153433,0.07641 0.287265,0.174862 0.402171,0.299208 0.09057,0.09844 0.170332,0.203357 0.235221,0.317341 0.06624,0.117871 0.132481,0.237035 0.166277,0.369152 0.02095,0.08225 0.06083,0.159967 0.06624,0.24675 0.0047,0.07188 0.0047,0.142479 -0.03177,0.209834 -0.01622,0.02979 -0.03582,0.04727 -0.07232,0.05441 -0.09598,0.01813 -0.181823,-0.0091 -0.265637,-0.04404 -0.111527,-0.04662 -0.202776,-0.120459 -0.283211,-0.205947 -0.110174,-0.117222 -0.205479,-0.245454 -0.275775,-0.387286 -0.05542,-0.113336 -0.102741,-0.230558 -0.145999,-0.349075 -0.07637,-0.211131 -0.158841,-0.420316 -0.241303,-0.629502 -0.0899,-0.229911 -0.2021,-0.449459 -0.327821,-0.661885 -0.103413,-0.175508 -0.221702,-0.341951 -0.346747,-0.505154 -0.09666,-0.126938 -0.203452,-0.244807 -0.309572,-0.363971 -0.09057,-0.102327 -0.185877,-0.200768 -0.278479,-0.301799 -0.05205,-0.05699 -0.10274,-0.115279 -0.153433,-0.172918 0.0034,-0.0038 0.0067,-0.0078 0.01013,-0.0123"
     id="path3516" /><path
     inkscape:connector-curvature="0"
     style="fill:#ffffff"
     d="m 23.484757,47.099459 c 0.01758,0.0078 0.03785,0.01296 0.0534,0.02396 0.196694,0.144422 0.390007,0.293378 0.547496,0.479249 0.07435,0.08873 0.154111,0.174862 0.218322,0.270712 0.08179,0.122404 0.170331,0.241569 0.227109,0.37822 0.02501,0.06023 0.06015,0.116574 0.08855,0.175508 0.06962,0.143128 0.113554,0.29338 0.152756,0.446221 0.0055,0.02202 0.01893,0.04599 0.03582,0.06153 0.02973,0.0285 0.06489,0.05181 0.09869,0.07577 0.102741,0.07253 0.19061,0.159319 0.254147,0.26553 0.0703,0.118518 0.140591,0.237683 0.19872,0.362029 0.03582,0.07641 0.05678,0.161909 0.0703,0.245454 0.02501,0.155432 0.0392,0.312161 -0.0055,0.466946 -0.01149,0.04145 -0.02299,0.08289 -0.03989,0.121755 -0.03853,0.08808 -0.09936,0.111392 -0.19196,0.07901 -0.07706,-0.02655 -0.14262,-0.07124 -0.196018,-0.126936 -0.10544,-0.108804 -0.200072,-0.226673 -0.25685,-0.366562 -0.08179,-0.203357 -0.145323,-0.409953 -0.153433,-0.631445 -0.0074,-0.203357 -0.02163,-0.407362 -0.04529,-0.610073 -0.02095,-0.177452 -0.07435,-0.349722 -0.142618,-0.517461 -0.06151,-0.150898 -0.14262,-0.292731 -0.231841,-0.429382 -0.05407,-0.08355 -0.11761,-0.16126 -0.184527,-0.236387 -0.0953,-0.106859 -0.196016,-0.209833 -0.296728,-0.312159 -0.05272,-0.05375 -0.110851,-0.102327 -0.1656,-0.154785 -0.01758,-0.01618 -0.03042,-0.03627 -0.04529,-0.0544 0.0026,-0.0045 0.0067,-0.0085 0.01013,-0.0123"
     id="path3518" /><path
     inkscape:connector-curvature="0"
     style="fill:#ffffff"
     d="m 24.958264,44.791934 c 0.492069,0.500622 1.887167,0.580929 3.047047,0.672893 1.574893,0.124994 3.553311,0.249339 5.000455,-0.406715 2.327867,0.22473 4.995049,0.214368 7.658173,-0.163204 2.599588,-0.368504 5.841295,-1.154087 7.360096,-2.300402 2.545516,-1.922182 -1.099728,-3.466791 -5.011945,-3.380657 -0.104139,0.002 -0.177772,0.04857 -0.184526,0.08613 -0.0494,-0.0038 -0.09934,-0.0071 -0.152089,-0.0078 -0.557632,-0.0058 -1.149739,0.05505 -1.706696,0.04533 -0.162221,-0.0032 -0.279155,0.103622 -0.120314,0.11528 1.107152,0.08419 2.298802,-0.09909 2.695564,0.433915 0.244683,0.327704 0.364997,0.691027 0.429219,1.054999 0.06488,0.371094 0.13315,0.777162 -0.120997,1.183229 -0.326468,0.5207 -1.235578,0.371095 -1.708726,0.122404 -1.542446,-0.810192 -0.15816,-2.341851 -1.914203,-3.104118 -1.539069,-0.669007 -3.82841,-0.45723 -6.290786,-0.06605 -2.098731,0.06411 -3.734458,-0.355551 -5.978513,-0.113336 -0.667132,0.07253 -1.082148,0.1781 -1.529606,0.345189 -0.04259,0.0071 -0.08112,0.02202 -0.103413,0.03951 -0.158166,0.06153 -0.322415,0.130821 -0.505589,0.209834 -0.910464,0.390523 -2.692865,0.604891 -3.42759,0.334828 -0.118286,-0.04339 -0.306867,-0.0071 -0.415015,0.04728 -0.156137,0.02721 -0.258201,0.115927 -0.11761,0.151547 0.02163,0.0052 0.04191,0.01166 0.06285,0.01684 -5.733828,1.834104 -2.614459,5.235485 3.034204,4.683053 m 1.549885,-5.293772 c 0.982112,0.53365 1.816872,1.21561 2.107519,1.937076 0.07232,0.179395 0.339988,0.802421 -0.352831,0.967568 -0.451514,0.10686 -0.991575,-0.130175 -1.211924,-0.216311 -1.026047,-0.400886 -1.823632,-0.900861 -2.687457,-1.367158 -0.279833,-0.150899 -0.626578,-0.39441 -1.047677,-0.5887 0.289969,-0.0091 0.594809,-0.03627 0.903705,-0.08031 0.500856,-0.07059 1.003741,-0.156081 1.470125,-0.296618 0.317007,-0.09585 0.55358,-0.233148 0.81854,-0.355551 m 8.853875,-0.42744 c 0.193989,0.587405 0.97738,1.07378 1.305202,1.630099 0.189932,0.321228 0.426505,0.745429 0.02636,1.137896 -0.274424,0.268768 -1.241664,0.716285 -1.864187,0.573804 -0.586699,-0.133412 -0.846929,-0.45205 -1.069982,-0.718227 -0.279155,-0.332884 -0.499504,-0.680665 -0.732697,-1.025208 -0.344719,-0.509041 -0.62793,-1.181286 -1.622208,-1.486971 0.707013,0.0557 1.407266,0.09844 2.179165,0.06671 0.01758,0.04728 0.108148,0.08031 0.266989,0.05441 0.483283,-0.07966 0.994955,-0.162557 1.511358,-0.232502 m -13.079045,1.143724 c 0.0014,-6.48e-4 0.0021,-0.0013 0.0034,-0.0013 1.042945,0.328999 1.773614,0.814079 2.567144,1.246051 0.515727,0.281073 1.02875,0.567977 1.633698,0.81343 0.337961,0.137299 0.738105,0.312808 1.265998,0.341304 1.498515,0.08031 1.448497,-0.949434 1.30047,-1.250584 -0.355534,-0.727295 -1.119324,-1.479846 -2.298803,-1.967517 0.06826,-0.02591 0.139915,-0.04986 0.21697,-0.07125 0.250767,-0.06929 0.516403,-0.12046 0.789475,-0.159319 0.509644,0.228615 0.840168,0.513575 1.247748,0.779105 0.06624,0.04339 0.28321,-0.03173 0.225757,-0.07707 -0.339988,-0.267472 -0.645504,-0.552434 -1.209896,-0.734419 0.404876,-0.04404 0.821242,-0.06153 1.22747,-0.06218 0.0047,0.002 0.0088,0.0045 0.01622,0.0065 0.696874,0.151546 1.084852,0.395056 1.218009,0.749313 0.02434,0.06477 0.272396,0.02526 0.265636,-0.04404 -0.0284,-0.290787 -0.291322,-0.555671 -0.798261,-0.69815 0.404876,0.01618 0.785418,0.04339 1.115267,0.07059 0.02569,0.002 0.05137,0.0038 0.07706,0.0065 -0.164249,0.03627 -0.287942,0.150252 -0.129101,0.194939 0.646856,0.181985 0.911141,0.573157 1.155147,0.891793 0.298081,0.388581 0.539385,0.791412 0.827327,1.182583 0.281182,0.380809 0.755679,1.352263 2.195388,1.191002 1.866215,-0.209188 2.287989,-1.121057 2.073722,-1.664423 -0.166276,-0.420964 -0.491393,-0.807602 -0.849631,-1.182582 -0.231841,-0.242217 -0.553579,-0.481842 -0.702281,-0.749316 0.429885,-0.05245 0.857742,-0.09261 1.271406,-0.112688 0.0034,0.01101 0.01419,0.02137 0.04055,0.02784 0.266987,0.06671 0.513022,0.154785 0.635365,0.281722 0.09395,0.09715 0.13586,0.205947 0.21697,0.306331 0.03109,0.03756 0.201424,0.01101 0.214942,-0.03562 0.07773,-0.270064 -0.209535,-0.467593 -0.636041,-0.593235 0.415691,-0.0032 0.810429,0.01813 1.165287,0.07836 0.103413,0.01749 0.201424,0.03627 0.296052,0.05699 0.03448,0.165147 0.102741,0.32317 0.168305,0.482489 0.06285,0.153488 0.08178,0.317988 0.209535,0.456583 0.03245,0.03497 0.187229,0.011 0.202776,-0.03369 0.10544,-0.292085 -0.127072,-0.5615 -0.270368,-0.827678 1.082148,0.305036 1.443088,0.836745 1.54718,1.470132 0.09666,0.593234 0.0392,1.341901 0.869233,1.764807 0.350123,0.178099 1.073363,0.459174 1.84864,0.289493 1.475535,-0.321875 0.969951,-1.665072 0.858418,-2.035518 -0.09325,-0.309571 -0.144642,-0.737657 -0.550878,-0.972102 -0.165598,-0.09585 -0.360932,-0.203357 -0.616434,-0.270711 0.761758,0.03432 1.488381,0.102327 2.148754,0.212425 -6.83e-4,0.0038 -10e-4,0.0078 6.72e-4,0.01165 0.182498,0.318637 0.411635,0.626265 0.505585,0.963682 0.0176,0.06541 0.270375,0.02461 0.259556,-0.04275 -0.05068,-0.327704 -0.271721,-0.611367 -0.531277,-0.891795 0.858418,0.160614 1.589766,0.398945 2.11158,0.738953 0.888838,0.579634 1.129455,1.442284 -0.127079,2.271905 -0.672537,0.443631 -1.58232,0.829621 -2.600263,1.152791 0.788124,-0.413192 1.290337,-0.920937 1.576248,-1.376873 0.0096,-0.01618 -0.05068,-0.01618 -0.06284,0 -0.47112,0.61914 -1.279517,1.239574 -2.579318,1.682557 -0.446782,0.115279 -0.904373,0.218902 -1.364674,0.311513 0.74283,-0.272655 1.320063,-0.620435 1.754681,-1.005778 0.05537,-0.04922 -0.0987,-0.05635 -0.15816,-0.01036 -0.672547,0.524585 -1.537719,0.904746 -2.703007,1.21626 -0.545467,0.08807 -1.084175,0.158671 -1.601254,0.21048 -0.23522,0.02332 -0.469089,0.04404 -0.701605,0.06282 1.230174,-0.257111 2.26298,-0.752552 2.93417,-1.260299 0.06488,-0.04922 -0.100084,-0.07059 -0.172361,-0.02332 -0.79691,0.520699 -1.772938,0.887261 -2.974723,1.224031 -0.07773,0.02202 -0.09463,0.05893 -0.06691,0.08096 -0.532625,0.03821 -1.056464,0.06283 -1.572866,0.07641 0.748243,-0.257112 1.367386,-0.596473 1.791187,-0.946844 0.04394,-0.03627 -0.07503,-0.05246 -0.127072,-0.01684 -0.554255,0.376277 -1.235582,0.670303 -2.007483,0.970806 -1.239636,0.02072 -2.430608,-0.02526 -3.564125,-0.128233 -0.004,-6.47e-4 -0.0081,-6.47e-4 -0.01284,-0.0013 -0.609004,-0.0557 -1.202462,-0.126289 -1.777669,-0.212424 -0.266314,-0.04014 -0.604274,0.159318 -0.335257,0.20271 0.510319,0.08224 1.046324,0.152841 1.602606,0.209186 -1.39983,0.510984 -3.291729,0.363971 -4.619237,0.22473 -1.570162,-0.165148 -2.744911,-0.309571 -2.944983,-1.036864 -0.02704,-0.09974 -0.427182,-0.06477 -0.463681,0.05051 -0.04259,0.136003 -0.02163,0.262293 0.04867,0.378867 -5.255278,0.382105 -7.910292,-2.680564 -2.569849,-4.444075"
     id="path3520" /><path
     inkscape:connector-curvature="0"
     d="m 81.747707,51.18863 c -0.242656,0 -0.557632,-0.0065 -0.945612,-0.01814 -0.389335,-0.0123 -0.818544,-0.02784 -1.289654,-0.04599 -0.47112,-0.01813 -0.967923,-0.04275 -1.489736,-0.07319 -0.522485,-0.03108 -1.040916,-0.06411 -1.556637,-0.101031 -0.515731,-0.03627 -1.009824,-0.07577 -1.480272,-0.118518 -0.471792,-0.04275 -0.891537,-0.08873 -1.260588,-0.137298 l 1.929081,-18.063201 c -0.789479,0.219548 -1.515419,0.478602 -2.177819,0.777162 -0.6624,0.299855 -1.215978,0.619788 -1.661405,0.961092 0.445427,0.256462 0.792179,0.604243 1.040916,1.04334 0.248055,0.439097 0.372434,0.878193 0.372434,1.317938 0,0.389877 -0.08312,0.762267 -0.248065,1.115876 -0.16628,0.354257 -0.389335,0.66577 -0.669165,0.93389 -0.27983,0.268122 -0.607653,0.478602 -0.983458,0.631444 -0.375145,0.152196 -0.767169,0.228616 -1.174749,0.228616 -0.471121,0 -0.891537,-0.09196 -1.260589,-0.274597 -0.369735,-0.183281 -0.684711,-0.43003 -0.94494,-0.741543 -0.261584,-0.310865 -0.458946,-0.661236 -0.592779,-1.05176 -0.133161,-0.390524 -0.200072,-0.799182 -0.200072,-1.226621 0,-0.792706 0.21899,-1.546553 0.658346,-2.260249 0.440017,-0.713694 1.034834,-1.372338 1.786456,-1.976582 0.750939,-0.603597 1.62964,-1.149553 2.636082,-1.63787 1.005097,-0.487671 2.075078,-0.899566 3.208588,-1.235041 1.132848,-0.335475 2.301515,-0.59453 3.504647,-0.777811 1.203814,-0.183281 2.378563,-0.274597 3.524247,-0.274597 1.184213,0 2.304887,0.10945 3.362032,0.328999 1.056462,0.220195 1.983146,0.564737 2.778707,1.034273 0.79555,0.469536 1.426186,1.070542 1.891224,1.80237 0.464356,0.732476 0.696865,1.617146 0.696865,2.654011 0,0.683256 -0.06348,1.247345 -0.19128,1.692919 -0.127079,0.445572 -0.298759,0.82703 -0.515049,1.143724 -0.216973,0.31734 -0.462328,0.607482 -0.735404,0.869126 -0.27442,0.262941 -0.557632,0.552433 -0.849636,0.869774 1.22207,0.439097 2.097389,1.097743 2.625956,1.976584 0.527895,0.878194 0.792851,1.878791 0.792851,3.001143 0,1.500572 -0.255502,2.742737 -0.764469,3.724552 -0.508966,0.981815 -1.225442,1.762863 -2.148743,2.342497 -0.923312,0.579634 -2.037221,0.985054 -3.342432,1.216907 -1.305871,0.231854 -2.747614,0.34778 -4.325879,0.34778 m -1.64317,-4.850141 c 0.407581,0.122402 0.846254,0.201414 1.318046,0.238328 0.470449,0.03627 0.909794,0.05441 1.318047,0.05441 0.407581,0 0.760414,-0.05441 1.059844,-0.1645 0.299431,-0.109449 0.550878,-0.256463 0.754322,-0.439095 0.203454,-0.183281 0.366352,-0.387288 0.487339,-0.613312 0.120997,-0.225377 0.2163,-0.450754 0.286594,-0.676779 0.06968,-0.226025 0.114232,-0.439744 0.13315,-0.64051 0.01964,-0.201416 0.02902,-0.369154 0.02902,-0.503214 0,-0.317342 -0.05132,-0.641159 -0.15275,-0.970157 -0.102112,-0.329648 -0.260912,-0.624969 -0.477203,-0.887909 -0.216973,-0.261644 -0.494092,-0.478603 -0.83138,-0.649578 -0.337286,-0.170976 -0.742157,-0.255816 -1.212606,-0.255816 -0.114904,0 -0.264955,0.0032 -0.448808,0.0091 -0.184526,0.0065 -0.379189,0.0091 -0.582643,0.0091 -0.204126,0 -0.404871,0.0032 -0.601571,0.0091 -0.197362,0.0065 -0.372424,0.0091 -0.525185,0.0091 l -0.554257,5.471737 z m 5.004519,-11.712489 c 0,-0.82962 -0.302812,-1.464303 -0.907083,-1.9034 -0.605625,-0.439744 -1.468097,-0.658644 -2.588782,-0.658644 l -0.629953,5.654504 0.649564,0 c 0.585342,0 1.098364,-0.102975 1.537709,-0.310865 0.438673,-0.207244 0.801643,-0.463059 1.088237,-0.768096 0.286584,-0.305036 0.499502,-0.63792 0.640089,-0.998006 0.139926,-0.360086 0.210219,-0.698151 0.210219,-1.015493"
     id="path3522" /><path
     inkscape:connector-curvature="0"
     d="m 111.12387,45.277013 c 0.24198,0.280426 0.48734,0.5615 0.7354,0.841926 0.24806,0.281074 0.49342,0.560852 0.73539,0.841925 -0.19128,0.536891 -0.50017,1.054999 -0.92669,1.555621 -0.42649,0.499975 -0.926,0.948786 -1.49918,1.34514 -0.57318,0.396352 -1.19368,0.713693 -1.86216,0.951376 -0.66848,0.23833 -1.33359,0.356848 -1.99599,0.356848 -2.12645,0 -3.42557,-0.805012 -3.89668,-2.415682 -0.10211,0.170977 -0.20345,0.329646 -0.30552,0.476013 -0.10211,0.146365 -0.22305,0.286903 -0.36297,0.420964 -0.10211,0.09779 -0.25482,0.235089 -0.45828,0.411895 -0.20412,0.176805 -0.45827,0.351018 -0.76446,0.521347 -0.30552,0.170975 -0.665108,0.317341 -1.078765,0.439096 -0.414335,0.121756 -0.894921,0.183281 -1.441738,0.183281 -0.866533,0 -1.611395,-0.146366 -2.235273,-0.439745 -0.623869,-0.292731 -1.13622,-0.691674 -1.537712,-1.198125 -0.400822,-0.506451 -0.69687,-1.10098 -0.888161,-1.784883 -0.19128,-0.682608 -0.286583,-1.420913 -0.286583,-2.214266 0,-0.194938 0.0064,-0.490908 0.01964,-0.887261 0.01217,-0.396353 0.05068,-0.850993 0.114221,-1.363273 0.0636,-0.512927 0.152762,-1.062122 0.267666,-1.647583 0.114233,-0.585463 0.273748,-1.171574 0.477203,-1.757036 0.204127,-0.585463 0.458942,-1.146315 0.764469,-1.683853 0.305508,-0.536242 0.671179,-1.012254 1.098367,-1.427387 0.425838,-0.414488 0.926013,-0.743487 1.499186,-0.988293 0.572513,-0.243511 1.228825,-0.365913 1.966932,-0.365913 0.382569,0 0.744868,0.03951 1.088908,0.119164 0.34404,0.07966 0.6624,0.176805 0.95507,0.292732 0.29268,0.115927 0.56035,0.24092 0.80232,0.374981 0.24198,0.134708 0.45152,0.262939 0.63063,0.384048 l 0.17168,-1.42739 5.90214,0.256465 -1.01252,9.590185 c -0.0257,0.207244 -0.0351,0.426793 -0.0284,0.658646 0.007,0.231854 0.0412,0.442335 0.10478,0.631444 0.0636,0.189758 0.17236,0.344543 0.32512,0.466945 0.15208,0.121756 0.36229,0.182633 0.62996,0.182633 0.25415,0 0.50626,-0.05505 0.75432,-0.1645 0.24807,-0.10945 0.47787,-0.247395 0.68741,-0.411895 0.21021,-0.165147 0.38865,-0.34778 0.53533,-0.549194 0.146,-0.201416 0.25144,-0.393116 0.31498,-0.576396 m -8.76737,-5.526922 c -0.0507,-0.09714 -0.13991,-0.219548 -0.26698,-0.365913 -0.12774,-0.146366 -0.3312,-0.219549 -0.61172,-0.219549 -0.34336,0 -0.67117,0.13406 -0.98346,0.402181 -0.31227,0.268769 -0.585332,0.640512 -0.821231,1.116524 -0.235889,0.476013 -0.4238,1.049817 -0.563716,1.720768 -0.139915,0.67095 -0.209533,1.408606 -0.209533,2.213618 0,0.525231 0.03792,0.937128 0.114227,1.235689 0.0764,0.299207 0.172359,0.521994 0.286587,0.668359 0.114905,0.145718 0.235221,0.235092 0.36297,0.264883 0.127081,0.03108 0.241986,0.04598 0.343366,0.04598 0.30551,0 0.634,-0.09131 0.98414,-0.274598 0.35013,-0.182633 0.60766,-0.494146 0.77393,-0.933242 l 0.59142,-5.874701 z m 2.76047,-11.547988 c 0.85909,-0.0123 1.72833,-0.0246 2.60702,-0.03692 l -4.2975,5.12474 c -0.67525,0.0123 -1.34035,0.01554 -1.99599,0.0091 -0.65565,-0.0058 -1.32143,0.0032 -1.99599,0.02719 l 3.09436,-5.069042 c 0.86517,-0.02461 1.72832,-0.04275 2.5881,-0.05505"
     id="path3524" /><path
     inkscape:connector-curvature="0"
     d="m 120.00546,41.708541 c 0,-0.268769 -0.0162,-0.527822 -0.048,-0.77781 -0.0318,-0.249987 -0.0851,-0.476012 -0.16221,-0.677427 -0.0764,-0.201415 -0.18116,-0.362675 -0.315,-0.485079 -0.13315,-0.121755 -0.3028,-0.182633 -0.50625,-0.182633 -0.31836,0 -0.60157,0.134061 -0.85031,0.402182 -0.24807,0.268769 -0.44813,0.598415 -0.60089,0.988292 l -1.03146,9.9561 -5.95959,0 1.60397,-15.51929 5.9785,-0.238329 -0.17167,1.537487 c 0.54749,-0.487671 1.13013,-0.83545 1.74792,-1.043341 0.6178,-0.207244 1.2322,-0.310865 1.84323,-0.310865 1.51475,0 2.61649,0.402829 3.30458,1.20784 0.68741,0.805658 1.03146,1.909878 1.03146,3.312656 0,0.500622 -0.0351,1.015492 -0.10542,1.546553 -0.0703,0.530414 -0.14668,1.04917 -0.22915,1.55562 -0.0831,0.506452 -0.15952,0.981816 -0.22913,1.427389 -0.0703,0.445573 -0.10542,0.83286 -0.10542,1.162506 0,0.31734 0.0764,0.600358 0.22982,0.850345 0.15275,0.250636 0.43258,0.375628 0.84017,0.375628 0.27982,0 0.5218,-0.03368 0.72593,-0.101031 0.20345,-0.06671 0.37513,-0.164499 0.51574,-0.292731 0.13991,-0.127585 0.26427,-0.286255 0.37243,-0.476011 0.10813,-0.18911 0.21967,-0.405421 0.33458,-0.649579 0.24129,0.281074 0.48666,0.5615 0.73471,0.841926 0.24875,0.281074 0.49342,0.5615 0.73541,0.841925 -0.21629,0.597769 -0.51843,1.156031 -0.90709,1.674786 -0.38864,0.518756 -0.84016,0.96692 -1.35657,1.345139 -0.51504,0.378219 -1.072,0.676779 -1.67019,0.896975 -0.5982,0.219549 -1.2018,0.328999 -1.81079,0.328999 -0.91452,0 -1.66344,-0.121755 -2.24675,-0.365914 -0.58401,-0.244158 -1.04701,-0.560852 -1.3897,-0.952025 -0.3427,-0.389876 -0.57792,-0.83545 -0.70432,-1.335424 -0.12775,-0.500621 -0.1906,-1.007072 -0.1906,-1.519352 0,-0.451402 0.0311,-0.920938 0.0926,-1.409255 0.0614,-0.487669 0.12909,-0.963681 0.20343,-1.427389 0.0743,-0.463707 0.14196,-0.90928 0.20346,-1.336072 0.0614,-0.426791 0.0926,-0.811487 0.0926,-1.152791"
     id="path3526" /><path
     inkscape:connector-curvature="0"
     d="m 136.00786,46.192122 c 0,-0.170976 0.0318,-0.43586 0.0953,-0.795944 0.0636,-0.360086 0.13045,-0.762267 0.20075,-1.20784 0.0703,-0.445574 0.13654,-0.915111 0.20075,-1.409256 0.0635,-0.494146 0.0953,-0.954614 0.0953,-1.382054 0,-0.512279 -0.0738,-0.942309 -0.21967,-1.290089 -0.14668,-0.34778 -0.42313,-0.521347 -0.83071,-0.521347 -0.17911,0 -0.34404,0.04923 -0.4968,0.146366 -0.15277,0.09779 -0.28996,0.216957 -0.41096,0.356847 -0.12099,0.140537 -0.22576,0.286903 -0.31498,0.439098 -0.0892,0.152841 -0.15951,0.283663 -0.21021,0.393761 l -1.05038,10.010502 -5.95892,0 2.42521,-22.034502 6.01704,-0.476011 c -0.0643,0.536888 -0.14058,1.165743 -0.22913,1.885265 -0.0892,0.720172 -0.18183,1.461066 -0.27713,2.223333 -0.0953,0.762915 -0.18791,1.50381 -0.27713,2.223332 -0.0892,0.720172 -0.17168,1.348378 -0.24806,1.885268 0.40758,-0.389877 0.8814,-0.692322 1.42281,-0.905395 0.5414,-0.21372 1.14906,-0.32058 1.82431,-0.32058 0.85301,0 1.57827,0.115927 2.17714,0.347781 0.59887,0.231854 1.08552,0.567329 1.46134,1.006425 0.37513,0.439097 0.64955,0.975987 0.82124,1.610669 0.17235,0.634684 0.2582,1.354207 0.2582,2.159865 0,0.53689 -0.0325,1.045932 -0.0953,1.527773 -0.0643,0.48184 -0.13113,0.933242 -0.20075,1.354206 -0.0703,0.420963 -0.13722,0.811487 -0.20075,1.170924 -0.0643,0.360733 -0.0953,0.686494 -0.0953,0.979873 0,0.158023 0.0155,0.314104 0.0472,0.466298 0.0318,0.152842 0.0926,0.29273 0.18182,0.420963 0.0885,0.128231 0.20008,0.231852 0.33391,0.310864 0.13383,0.07966 0.30889,0.119164 0.52518,0.119164 0.28052,0 0.53465,-0.04857 0.76379,-0.146364 0.22982,-0.09779 0.43665,-0.222139 0.62117,-0.374982 0.18453,-0.152842 0.34675,-0.323817 0.48734,-0.512279 0.13991,-0.18911 0.24807,-0.381458 0.32445,-0.577043 l 1.4904,1.683851 c -0.21697,0.597769 -0.53195,1.156031 -0.94561,1.674786 -0.41434,0.518756 -0.88884,0.96692 -1.42348,1.345139 -0.53466,0.378219 -1.11121,0.676779 -1.72834,0.896975 -0.61779,0.219549 -1.2322,0.328999 -1.84323,0.328999 -1.01861,0 -1.83716,-0.170975 -2.45495,-0.512279 -0.6171,-0.341952 -1.09161,-0.765506 -1.4228,-1.271957 -0.33121,-0.50645 -0.55358,-1.052407 -0.66781,-1.63787 -0.11492,-0.585462 -0.17236,-1.116523 -0.17236,-1.592535"
     id="path3528" /><path
     inkscape:connector-curvature="0"
     d="m 178.20419,46.92395 c -0.2163,0.598415 -0.5502,1.153439 -1.00239,1.665717 -0.45219,0.51228 -0.96791,0.960444 -1.54786,1.34514 -0.57926,0.384047 -1.19705,0.686493 -1.85269,0.906042 -0.65565,0.219548 -1.29574,0.329 -1.91894,0.329 -0.80299,0 -1.49649,-0.118518 -2.08183,-0.356848 -0.58602,-0.237683 -1.06999,-0.56992 -1.45255,-0.997359 -0.38123,-0.426792 -0.66511,-0.9449 -0.84964,-1.555621 -0.18519,-0.609424 -0.27713,-1.281023 -0.27713,-2.01285 0,-0.35361 0.0257,-0.670951 0.0764,-0.952025 l 0.45828,-6.222482 c -0.0885,0.207892 -0.18116,0.430031 -0.27645,0.668362 -0.0953,0.23768 -0.21629,0.536888 -0.36297,0.896326 -0.14601,0.360086 -0.3312,0.805659 -0.55425,1.336073 -0.22306,0.53106 -0.49951,1.198772 -0.83071,2.004431 -0.3312,0.805011 -0.72865,1.775168 -1.19368,2.909825 -0.46503,1.134658 -1.01522,2.483035 -1.65194,4.044485 l -4.94706,0 c -0.10211,-0.670951 -0.21359,-1.375578 -0.33458,-2.113882 -0.121,-0.738306 -0.24874,-1.555621 -0.3819,-2.452597 -0.13383,-0.896327 -0.27713,-1.902752 -0.42988,-3.019276 -0.15276,-1.116523 -0.32444,-2.394308 -0.51573,-3.834002 l -2.4448,11.419757 -5.57769,0 4.43133,-18.355932 c -0.72527,0.0246 -1.42619,0.136652 -2.10076,0.338065 -0.67525,0.201415 -1.29844,0.577043 -1.87229,1.125591 0.44609,0.256463 0.79623,0.604243 1.05105,1.04334 0.25482,0.439097 0.3819,0.878842 0.3819,1.317291 0,0.391172 -0.0831,0.762914 -0.24875,1.116524 -0.16492,0.354256 -0.39068,0.665122 -0.67795,0.933243 -0.28658,0.268768 -0.61779,0.47925 -0.99293,0.631444 -0.37581,0.152842 -0.76716,0.229263 -1.17474,0.229263 -0.47113,0 -0.89154,-0.09131 -1.26059,-0.274597 -0.36906,-0.183281 -0.68133,-0.430031 -0.93615,-0.740896 -0.25483,-0.311512 -0.44881,-0.661883 -0.58197,-1.053055 -0.13383,-0.389876 -0.20075,-0.798534 -0.20075,-1.225974 0,-0.780401 0.17169,-1.515467 0.51572,-2.205198 0.34337,-0.689085 0.81787,-1.323766 1.42282,-1.903402 0.60495,-0.579633 1.31805,-1.09515 2.13929,-1.546552 0.82125,-0.450755 1.7094,-0.83545 2.66448,-1.152792 0.95508,-0.316694 1.95407,-0.558261 2.99905,-0.722761 1.04363,-0.165148 2.09467,-0.247396 3.15114,-0.247396 0.76447,0 1.48973,0.05505 2.17782,0.165146 l 2.52118,14.347716 6.45639,-14.347716 6.22657,0 c -0.17844,2.879388 -0.34742,5.758774 -0.50695,8.637514 -0.15883,2.880036 -0.32105,5.771729 -0.48598,8.675077 0.0121,0.378867 0.0953,0.661884 0.24739,0.850994 0.15344,0.189757 0.42719,0.283664 0.82191,0.283664 0.25416,0 0.50628,-0.04857 0.75433,-0.146366 0.24873,-0.09714 0.4772,-0.225378 0.68809,-0.384048 0.20954,-0.158671 0.38797,-0.332237 0.53465,-0.521346 0.146,-0.189109 0.25145,-0.375628 0.31498,-0.558909 l 1.48973,1.683852 z"
     id="path3530" /><path
     inkscape:connector-curvature="0"
     d="m 179.06329,28.202103 c 0.85977,0.0123 1.72832,0.03044 2.60701,0.05505 0.35622,0.85423 0.71311,1.704576 1.06931,2.552979 0.35689,0.848403 0.71309,1.704577 1.06931,2.571112 -0.67457,-0.0246 -1.33967,-0.04275 -1.99533,-0.05505 -0.65631,-0.01166 -1.32141,-0.02397 -1.99598,-0.03627 l -3.34242,-5.124739 c 0.86518,0.0123 1.72832,0.0246 2.5881,0.03692 m 7.15258,17.07491 c 0.24198,0.281073 0.48733,0.5615 0.7354,0.841926 0.24874,0.281074 0.4941,0.561499 0.73608,0.841926 -0.19128,0.524585 -0.49681,1.036864 -0.91655,1.536839 -0.42042,0.500622 -0.91722,0.949434 -1.49108,1.345785 -0.57251,0.396354 -1.20246,0.713696 -1.89054,0.951377 -0.68741,0.237683 -1.38834,0.356847 -2.10076,0.356847 -0.79016,0 -1.46202,-0.112688 -2.0156,-0.338713 -0.55358,-0.225377 -1.01253,-0.548547 -1.3755,-0.969511 -0.36229,-0.42161 -0.62657,-0.921584 -0.79218,-1.50057 -0.16628,-0.579635 -0.24806,-1.229212 -0.24806,-1.949384 0,-0.341951 0.0156,-0.661883 0.0472,-0.96109 0.0318,-0.29856 0.048,-0.61914 0.048,-0.960443 l 0.99292,-9.059126 6.01705,-0.238329 -1.14637,10.340148 c 0,0.183281 0.0155,0.357494 0.048,0.521994 0.0318,0.164499 0.0885,0.310865 0.17169,0.439096 0.0831,0.128233 0.19736,0.229264 0.34404,0.301799 0.14599,0.07319 0.32782,0.110098 0.54478,0.110098 0.25415,0 0.5056,-0.04857 0.75433,-0.146366 0.24807,-0.09779 0.47788,-0.225377 0.68741,-0.384695 0.20954,-0.158024 0.38798,-0.332238 0.53465,-0.521347 0.14668,-0.18911 0.25145,-0.374981 0.31498,-0.558261"
     id="path3532" /><rect
     x="-77.718285"
     style="fill:none"
     y="-55.554356"
     width="390"
     height="118"
     id="rect3534" /></svg>